<svg id="Capa_1" data-name="Capa 1" xmlns="http://www.w3.org/2000/svg" viewBox="0 0 59.57 56.49"><defs><style>.cls-1{fill:gray;}</style></defs><title>css3</title><ellipse class="cls-1" cx="10.71" cy="43.1" rx="4.05" ry="4.09"/><polygon class="cls-1" points="46.13 56.49 9.29 56.49 9.29 12.65 52.92 12.65 52.92 50.22 50.35 50.22 50.35 15.25 11.86 15.25 11.86 53.89 46.13 53.89 46.13 56.49"/><path class="cls-1" d="M42.3,24.77l-2.77,0-7.59,0v-.06l-.67,0H22c-.29,0-.55,0-.49.42.13,1.13.23,2.27.31,3.4,0,.32.15.42.45.42.66,0,1.33,0,2,0l7.68,0,5,0c.22,0,.44,0,.66-.05h0c.29.07.22.28.2.49-.1,1.08-.22,2.16-.28,3.25,0,.47-.12.63-.63.63-1.65,0-3.3,0-4.95,0v-.05l-4.55,0c-.31,0-.45,0-.4.42.13,1.09.21,2.19.27,3.29,0,.41.15.54.56.53,1.37,0,2.74,0,4.11,0h5.14c-.15,1.71-.31,3.42-.44,5.13,0,.29-.19.34-.42.41-1.39.37-2.78.76-4.16,1.14l-.12,0c-1.51-.29-3-.81-4.46-1.16-.22,0-.2-.23-.22-.4-.07-.84-.17-1.68-.21-2.52,0-.41-.17-.54-.57-.53-1.06,0-2.12,0-3.18,0-.46,0-.51.17-.47.56.18,1.88.36,3.77.52,5.65a.51.51,0,0,0,.46.56c2.68.74,5.35,1.5,8,2.25l.12,0h0a.81.81,0,0,0,.22,0c2.65-.75,5.31-1.5,8-2.23a.47.47,0,0,0,.39-.51c0-.62.1-1.24.15-1.85q.32-3.43.62-6.88c.17-1.93.35-3.87.51-5.81s.34-4.07.51-6.1C42.39,25.05,42.48,24.9,42.3,24.77ZM31.94,33.31v0Z"/><path class="cls-1" d="M42.3,24.77l-2.77,0-7.59,0v-.06l-.67,0H22c-.29,0-.55,0-.49.42.13,1.13.23,2.27.31,3.4,0,.32.15.42.45.42.66,0,1.33,0,2,0l7.68,0,5,0c.22,0,.44,0,.66-.05h0c.29.07.22.28.2.49-.1,1.08-.22,2.16-.28,3.25,0,.47-.12.63-.63.63-1.65,0-3.3,0-4.95,0v-.05l-4.55,0c-.31,0-.45,0-.4.42.13,1.09.21,2.19.27,3.29,0,.41.15.54.56.53,1.37,0,2.74,0,4.11,0h5.14c-.15,1.71-.31,3.42-.44,5.13,0,.29-.19.34-.42.41-1.39.37-2.78.76-4.16,1.14l-.12,0c-1.51-.29-3-.81-4.46-1.16-.22,0-.2-.23-.22-.4-.07-.84-.17-1.68-.21-2.52,0-.41-.17-.54-.57-.53-1.06,0-2.12,0-3.18,0-.46,0-.51.17-.47.56.18,1.88.36,3.77.52,5.65a.51.51,0,0,0,.46.56c2.68.74,5.35,1.5,8,2.25l.12,0h0a.81.81,0,0,0,.22,0c2.65-.75,5.31-1.5,8-2.23a.47.47,0,0,0,.39-.51c0-.62.1-1.24.15-1.85q.32-3.43.62-6.88c.17-1.93.35-3.87.51-5.81s.34-4.07.51-6.1C42.39,25.05,42.48,24.9,42.3,24.77ZM31.94,33.31v0Z"/></svg>