<svg id="Capa_1" data-name="Capa 1" xmlns="http://www.w3.org/2000/svg" viewBox="0 0 59.57 56.49"><defs><style>.cls-1{fill:gray;}</style></defs><title>git</title><path class="cls-1" d="M21.48,17.29c1.65,1.69,3.24,3.29,4.8,4.92a1,1,0,0,1,.15.75,3.74,3.74,0,0,0,1.64,4,1.2,1.2,0,0,1,.43.8c0,3.84,0,7.68,0,11.53a1.47,1.47,0,0,1-.62.92,3.69,3.69,0,0,0-1.38,4,3.55,3.55,0,0,0,6.75.14,3.53,3.53,0,0,0-1.16-4,1.33,1.33,0,0,1-.58-1.22c0-3.56,0-7.12,0-10.68,0-.25,0-.49,0-.74l.27-.21c.36.45.69.93,1.09,1.35q1.35,1.42,2.76,2.79A1,1,0,0,1,36,32.76,3.56,3.56,0,1,0,43,34,3.61,3.61,0,0,0,39.78,30a.83.83,0,0,0-.38,0c-1,.37-1.55-.21-2.15-.85-1.14-1.21-2.36-2.36-3.5-3.58a1.44,1.44,0,0,1-.33-1.06,3.62,3.62,0,0,0-4.11-4.13,1.25,1.25,0,0,1-.94-.26C26.89,18.6,25.45,17.1,24,15.64c-.38-.37-.34-.6,0-.94,1.16-1.13,2.28-2.29,3.42-3.44,1.54-1.55,3.14-1.55,4.68,0q6.54,6.58,13.06,13.19l6.39,6.45c1.64,1.66,1.62,3.22,0,4.89L32.23,55.26c-1.62,1.64-3.16,1.63-4.78,0L8.1,35.75c-1.72-1.74-1.72-3.25,0-5Q14.46,24.35,20.79,18C21,17.75,21.19,17.56,21.48,17.29Z"/></svg>