<svg id="Capa_1" data-name="Capa 1" xmlns="http://www.w3.org/2000/svg" viewBox="0 0 59.57 56.49"><defs><style>.cls-1{fill:gray;}</style></defs><title>gulp</title><path class="cls-1" d="M29.12,56.49c-1-.22-1.94-.36-2.87-.66s-1.78-.77-2.66-1.17a.78.78,0,0,1-.48-.73q-.24-3.78-.53-7.54a1.54,1.54,0,0,0-.22-.62c-.41-.71-.85-1.4-1.34-2.19a22.39,22.39,0,0,0,8.47,1.36A24.47,24.47,0,0,0,38,43.75,12.15,12.15,0,0,1,37.25,45a3.61,3.61,0,0,0-.65,2.11c-.1,2.16-.23,4.33-.32,6.49a1.28,1.28,0,0,1-.68,1.18,11,11,0,0,1-4.42,1.56,1.9,1.9,0,0,0-.39.11Z"/><path class="cls-1" d="M18,14.85A7.68,7.68,0,0,1,21.17,14a69.09,69.09,0,0,1,9.54-.42.53.53,0,0,0,.64-.49c.35-1.47.72-2.94,1.14-4.4a2.87,2.87,0,0,1,.59-1.12c1.84-2,3.72-4,5.57-5.94a3,3,0,0,0,.25-.37H39L40.5,2.52c-.48.55-1,1.09-1.45,1.63C37.78,5.57,36.49,7,35.23,8.44a2.74,2.74,0,0,0-.53,1c-.42,1.37-.79,2.75-1.21,4.19l.7.1,6.14.64a1.66,1.66,0,0,1,.5.12c.26.14.5.31.76.47-.24.18-.44.44-.71.52a16.61,16.61,0,0,1-2.3.62,51.3,51.3,0,0,1-13,.56,30.4,30.4,0,0,1-6.15-1A10.37,10.37,0,0,1,18,15.06Zm13.92,1c.42-.1.83-.18,1.22-.3.1,0,.15-.18.22-.28-.11,0-.24-.06-.33,0a2.62,2.62,0,0,1-2.16,0,1,1,0,0,0-.3,0c.05.1.08.28.16.3C31.11,15.66,31.51,15.75,31.91,15.85Z"/><path class="cls-1" d="M19.26,29.32l-1.2-12.75a46.89,46.89,0,0,0,23.53,0c-.08.73-.16,1.52-.25,2.31q-.39,3.45-.8,6.92c-.17,1.56-.34,3.13-.53,4.69a.52.52,0,0,1-.16.31c-.66.56-1.32,1.13-2,1.67a1.52,1.52,0,0,1-.52.17l-.09-.15c.29-.34.59-.66.85-1a17.43,17.43,0,0,0,1-1.57.76.76,0,0,0-.09-1A1.5,1.5,0,0,0,38,28.54a10.62,10.62,0,0,0-1.77.93.42.42,0,0,0,0-.23c-.06-.16-.14-.41-.26-.44a.55.55,0,0,0-.52.16,3.61,3.61,0,0,0-.49,1,2.12,2.12,0,0,1-.75,1.16c-.45.36-.88.74-1.34,1.08a3.51,3.51,0,0,1-.59.26l-.14-.1a7.06,7.06,0,0,1,.21-.91c.79-2,1.59-3.92,2.38-5.87a1.24,1.24,0,0,0,.18-.48c0-.25-.08-.62-.23-.69s-.5.06-.71.19-.19.32-.26.5q-1.3,3.35-2.59,6.68a1.48,1.48,0,0,1-1.12.74c-.35,0-.33-.25-.25-.48.27-.79.56-1.58.83-2.37a1.74,1.74,0,0,0,.16-.7.63.63,0,0,0-.3-.47.57.57,0,0,0-.51.2,7.24,7.24,0,0,0-.39.79c-.46.82-.9,1.64-1.42,2.42-.22.33-.66.67-1.06.42-.15-.09-.09-.71,0-1,.24-.68.58-1.34.89-2,.14-.29.23-.58-.12-.77a.55.55,0,0,0-.81.25c-.5,1.28-1,2.56-1.4,3.87-.18.6.33,1,1,1.06s1.31-.29,2.15-1.2c.1.51,0,1.24.74,1.17A5.83,5.83,0,0,0,31,33.19c.48.63.87.74,1.65.34.43-.22.81-.52,1.31-.84-.33.72-.63,1.36-.91,2a10.34,10.34,0,0,0-.62,1.56.85.85,0,0,0,.2.76c.31.24.63,0,.83-.27a3.31,3.31,0,0,0,.31-.66c.56-1.34,1-2.71,1.68-4a10.07,10.07,0,0,1,1.45-1.95,1,1,0,0,1,1.15-.3,4.06,4.06,0,0,1-.3.59c-.46.61-1,1.21-1.4,1.83a1,1,0,0,0-.2,1.11.86.86,0,0,0,1,.37A7.33,7.33,0,0,0,38.74,33a7.89,7.89,0,0,0,1.08-.89c-.09.81-.16,1.54-.25,2.27-.26,2.3-.54,4.61-.79,6.92a1.94,1.94,0,0,1-1.47,1.91,23.07,23.07,0,0,1-5.84.89,32.1,32.1,0,0,1-8-.54,17.39,17.39,0,0,1-2-.61,1.61,1.61,0,0,1-1.08-1.56c-.22-2.4-.46-4.8-.68-7.2,0-.14,0-.28,0-.46,1.57.46,2.43-.68,3.52-1.57-.19.64-.37,1.17-.5,1.72a4.41,4.41,0,0,0-.14,1,.37.37,0,0,0,.69.22,2.14,2.14,0,0,0,.37-.68q.79-2.46,1.55-4.94a4.73,4.73,0,0,0,.21-1.23c0-.19-.19-.53-.32-.54a.76.76,0,0,0-.63.31A8,8,0,0,0,24,29.27a6,6,0,0,1-2.56,3.07c-.63.42-1.1.16-1.11-.6a6.94,6.94,0,0,1,.2-1.76,10.86,10.86,0,0,1,2.32-4.4,4.09,4.09,0,0,1,.7-.62,1,1,0,0,1,1.69.37,1.76,1.76,0,0,0,.14.23c.18.24.31.62.71.44s.43-.57.33-.95a2.29,2.29,0,0,0-2.46-1.5A4.36,4.36,0,0,0,21.66,25a11.44,11.44,0,0,0-2.22,3.82C19.4,29,19.35,29.07,19.26,29.32Z"/></svg>