<svg id="Capa_1" data-name="Capa 1" xmlns="http://www.w3.org/2000/svg" viewBox="0 0 59.57 56.49"><defs><style>.cls-1{fill:gray;}</style></defs><title>html5</title><ellipse class="cls-1" cx="10.71" cy="43.1" rx="4.05" ry="4.09"/><polygon class="cls-1" points="46.13 56.49 9.29 56.49 9.29 12.65 52.92 12.65 52.92 50.22 50.35 50.22 50.35 15.25 11.86 15.25 11.86 53.89 46.13 53.89 46.13 56.49"/><path class="cls-1" d="M41.6,33.12c-.1,1.44-.18,2.74-.3,4-.25,2.8-.5,5.6-.81,8.39a1.26,1.26,0,0,1-.71.9c-2.46.75-4.94,1.43-7.42,2.1a2.23,2.23,0,0,1-1.09,0c-2.45-.67-4.89-1.4-7.34-2a1,1,0,0,1-.87-1c-.14-1.93-.34-3.85-.52-5.85h4.27c.09.86.22,1.71.25,2.56a.86.86,0,0,0,.81,1c1.07.24,2.11.6,3.18.83a4.17,4.17,0,0,0,1.41,0,8.25,8.25,0,0,0,1.19-.29c2.83-.75,2.83-.75,3.05-3.66.06-.79.11-1.58.18-2.53H23.25c-.51,0-.91,0-1-.71-.3-3.7-.66-7.4-1-11.09,0-.34,0-.68,0-1.09H42.39c-.12,1.31-.18,2.59-.39,3.83,0,.23-.66.5-1,.5-4.57,0-9.14,0-13.71,0H25.92l.37,4.21Z"/></svg>