<svg id="Capa_1" data-name="Capa 1" xmlns="http://www.w3.org/2000/svg" viewBox="0 0 59.57 56.49"><defs><style>.cls-1{fill:gray;}</style></defs><title>sass</title><path class="cls-1" d="M8.5,56.49a2.87,2.87,0,0,0-.71-.13,2.51,2.51,0,0,1-2-1.6,4.82,4.82,0,0,1-.16-3.56A6.9,6.9,0,0,1,7.81,48a27.13,27.13,0,0,1,5.66-3.72,1.76,1.76,0,0,0,.43-.26,14.91,14.91,0,0,0-1.49-1.16c-1.45-1-2.93-2-4.31-3.13A15.82,15.82,0,0,1,5,36.53a8.29,8.29,0,0,1-1-2.13A4.92,4.92,0,0,1,4,31.23a12.43,12.43,0,0,1,2.24-3.94,24.25,24.25,0,0,1,6-5.17A40.29,40.29,0,0,1,21.13,18a20.36,20.36,0,0,1,5.47-1A14.78,14.78,0,0,1,32,17.7a7.46,7.46,0,0,1,3.09,1.87,5,5,0,0,1,1.41,3.08,8.9,8.9,0,0,1-1.61,5.94,13.57,13.57,0,0,1-7.59,5.66,18.18,18.18,0,0,1-6.21.89,6.66,6.66,0,0,1-4.22-1.44,3.24,3.24,0,0,1-1.12-1.53.49.49,0,0,1,0-.11c0-.19-.08-.39.12-.51s.34.05.45.18a5,5,0,0,0,3.46,1.58,14.07,14.07,0,0,0,6.73-1.26,13.89,13.89,0,0,0,5.13-3.61,8.42,8.42,0,0,0,2-3.5A4.34,4.34,0,0,0,33.69,23a2.77,2.77,0,0,0-1.44-1.9,7.09,7.09,0,0,0-2.76-.84,17.47,17.47,0,0,0-7.88,1.05,33.33,33.33,0,0,0-10,5.52,12.13,12.13,0,0,0-3.24,3.74,6.23,6.23,0,0,0-.76,3.16,5.12,5.12,0,0,0,1.12,2.92,14.69,14.69,0,0,0,2.74,2.66c1.2,1,2.46,1.87,3.59,2.93.21.2.42.4.61.61a.2.2,0,0,0,.3,0c1.39-.77,2.78-1.56,4.19-2.3a4.7,4.7,0,0,0,1.38-1.17,7.73,7.73,0,0,1,3-2.24A2.73,2.73,0,0,1,25.64,37a1.55,1.55,0,0,1,1.65,1.36,4.68,4.68,0,0,1,0,1.71.48.48,0,0,0,0,.24c.17-.06.29-.22.47-.25a1.29,1.29,0,0,1,1,.29.61.61,0,0,1,.21.62c-.16.81-.41,1.59-.62,2.38-.25,1-.52,2-.69,3a3.44,3.44,0,0,0,0,1.43c.16,0,.2-.18.26-.3.53-1,1-2,1.44-3,1-2.36,2.11-4.72,3.11-7.1A9.67,9.67,0,0,0,33,35.69a.58.58,0,0,1,.42-.47,4.82,4.82,0,0,1,2.26-.17.82.82,0,0,1,.34.12.42.42,0,0,1,.22.6,9.24,9.24,0,0,0-.56,2.14,5.84,5.84,0,0,0,.53,3.19l.29.56.56-1a47.69,47.69,0,0,0,2.39-4.53A13.66,13.66,0,0,0,40,34.3a.93.93,0,0,1,.8-.74,5.12,5.12,0,0,1,1.87-.1,1.06,1.06,0,0,1,.39.13.43.43,0,0,1,.25.62,10.22,10.22,0,0,0-.55,2.09,5.83,5.83,0,0,0,.55,3.29c.17.33.35.67.51,1,.07.14.14.14.27.08a10.51,10.51,0,0,1,4.8-1,7.74,7.74,0,0,1,4.88,1.61A5.34,5.34,0,0,1,55.88,45v.8a3.53,3.53,0,0,1-2.15,2.87,1.37,1.37,0,0,1-.52.13.23.23,0,0,1-.16-.42l.46-.32a2.71,2.71,0,0,0,.91-3.68A4.79,4.79,0,0,0,51.61,42,10.52,10.52,0,0,0,47,41.48a9,9,0,0,0-2.28.52c-.19.08-.23.16-.15.35a3.89,3.89,0,0,1,.18.58,3.35,3.35,0,0,1-.52,3.13,6.69,6.69,0,0,1-3.88,2.41,1.2,1.2,0,0,1-1.56-1.15,3.73,3.73,0,0,1,.45-2,9.18,9.18,0,0,1,2.38-3,.28.28,0,0,0,.09-.42,10.13,10.13,0,0,1-.94-2.35c-.13-.52-.25-1-.38-1.57a.64.64,0,0,0-.06.11,41.77,41.77,0,0,1-3,5.1.24.24,0,0,0,0,.27,6.7,6.7,0,0,1,.4,1.22,3.74,3.74,0,0,1-.68,3.49,6.08,6.08,0,0,1-5,2c-.89,0-1.19-.78-.7-1.54a6.13,6.13,0,0,1,.44-.6c1-1.27,2.1-2.45,3-3.78a.39.39,0,0,0,0-.48,12.16,12.16,0,0,1-1.15-2.85c-.1-.46-.21-.92-.33-1.4a.64.64,0,0,0-.06.11,72,72,0,0,1-4.52,9.51,4.64,4.64,0,0,1-1.32,1.53,1.22,1.22,0,0,1-1.23.17,1.32,1.32,0,0,1-.72-.86,5.75,5.75,0,0,1-.22-2.44c0-.17,0-.35,0-.53-.32.6-.57,1.21-.85,1.81a13,13,0,0,1-1.15,2.1,1.87,1.87,0,0,1-3,0,7.79,7.79,0,0,1-1.26-4.18,11.34,11.34,0,0,1,.3-2.65c.09-.44.22-.88.37-1.37l-.32.17-2.12,1.23c-.15.08-.36.15-.42.28s.11.31.16.47a8.39,8.39,0,0,1,.23,4.86A8.48,8.48,0,0,1,11,56.27c-.33.1-.67.15-1,.22Zm7-9.44a8.25,8.25,0,0,0-.21-1.71c0-.16-.08-.19-.24-.1a31.87,31.87,0,0,0-3.49,2.36,8.41,8.41,0,0,0-2.17,2.28,4.26,4.26,0,0,0-.7,2.55,1.07,1.07,0,0,0,1,1,2.73,2.73,0,0,0,1.27-.14A6.8,6.8,0,0,0,15.45,47.05Zm6.28-.65A4.75,4.75,0,0,0,22,48.1c.19.43.44.47.74.09a4.52,4.52,0,0,0,.57-1,55.09,55.09,0,0,0,2.34-6.32,9.78,9.78,0,0,0,.3-1.3c.06-.45-.14-.64-.58-.52a2.27,2.27,0,0,0-.39.16,3.37,3.37,0,0,0-1.1.95A10.31,10.31,0,0,0,21.73,46.4Zm21-2.45a2.79,2.79,0,0,0-.09-.64c0-.15-.07-.2-.21-.07a6.63,6.63,0,0,0-1.85,3.06,1.1,1.1,0,0,0,0,.31c0,.14.06.2.23.14A2.87,2.87,0,0,0,42.72,44Zm-7,1.51-.86,1.09c-.5.62-1.05,1.21-1.59,1.81,0,0-.14.09-.08.18s.14,0,.2,0a2.23,2.23,0,0,0,.31-.15A5.17,5.17,0,0,0,35,47.22,2.67,2.67,0,0,0,35.67,45.46ZM25.33,46.91l0,0v0a.06.06,0,0,0,0,0Z"/></svg>