<svg id="Capa_1" data-name="Capa 1" xmlns="http://www.w3.org/2000/svg" viewBox="0 0 59.57 56.49"><defs><style>.cls-1{fill:gray;}</style></defs><title>webpack</title><path class="cls-1" d="M40.67,10.61c.27.06.54.1.81.17a4.31,4.31,0,0,1,2.65,2.06,8.87,8.87,0,0,1,1.11,3.32,16.31,16.31,0,0,1,.17,3.27,28.3,28.3,0,0,1-.61,4.67c0,.22-.11.45-.16.68s0,.19.14.23a27.28,27.28,0,0,1,5.15,2.06,14,14,0,0,1,3.69,2.72,5.86,5.86,0,0,1,1.66,3.1,4.47,4.47,0,0,1-.57,2.88,9.45,9.45,0,0,1-2.91,3.09,21.31,21.31,0,0,1-5.22,2.68c-.56.21-1.12.4-1.69.57-.13,0-.18.09-.14.25a26.12,26.12,0,0,1,.66,3.84,19.75,19.75,0,0,1,.1,2.43,13.83,13.83,0,0,1-.65,4.14,5.82,5.82,0,0,1-2,2.94,4.31,4.31,0,0,1-2,.74,8.11,8.11,0,0,1-4.12-.75A19.61,19.61,0,0,1,32,52.76,22.43,22.43,0,0,1,30.07,51c-.14-.14-.22-.14-.37,0A24,24,0,0,1,24,55.2a11.25,11.25,0,0,1-3.49,1.18,5.23,5.23,0,0,1-3.63-.58A5,5,0,0,1,15,53.49a10.15,10.15,0,0,1-.79-3.31,20.16,20.16,0,0,1,.12-4.46,31.82,31.82,0,0,1,.6-3.21c.05-.17,0-.24-.16-.29a23.32,23.32,0,0,1-6.52-3,10.7,10.7,0,0,1-3.13-3,5,5,0,0,1-.85-2.85,5,5,0,0,1,1-2.72A11.14,11.14,0,0,1,8.7,27.57,24.88,24.88,0,0,1,14.76,25c.16-.05.24-.09.19-.29a28.49,28.49,0,0,1-.61-3.19c-.09-.7-.16-1.41-.2-2.12a17.14,17.14,0,0,1,0-2.15,9,9,0,0,1,1.51-4.82,4.2,4.2,0,0,1,3.1-1.74,8.42,8.42,0,0,1,4,.72,20.42,20.42,0,0,1,5.06,3.1c.64.53,1.27,1.07,1.86,1.66.13.13.21.1.33,0a25.83,25.83,0,0,1,4.94-3.83,12.65,12.65,0,0,1,4-1.6,3.64,3.64,0,0,0,.66-.11ZM26.87,44c-.07,0-.05,0,0,.09.85,1.12,1.73,2.2,2.67,3.24.33.38.33.39.66,0,.92-1,1.78-2.13,2.6-3.24,0,0,0-.06,0-.08C30.83,44,28.85,44.09,26.87,44Zm-.33-18.64a6.58,6.58,0,0,0-1,0,.73.73,0,0,0-.64.38,65.4,65.4,0,0,0-4.31,7.6.41.41,0,0,0,0,.39A65.64,65.64,0,0,0,25,41.54a.43.43,0,0,0,.37.21c.74,0,1.48.07,2.21.08,2.17,0,4.34.06,6.5-.11a.6.6,0,0,0,.52-.29A73.33,73.33,0,0,0,39,33.71a.33.33,0,0,0,0-.36,73.37,73.37,0,0,0-4.42-7.7.5.5,0,0,0-.44-.25c-1,0-1.92-.12-2.88-.13A43.76,43.76,0,0,0,26.54,25.36ZM6.43,33.42c0,.1,0,.2,0,.3a4.87,4.87,0,0,0,1.86,2.85,19.87,19.87,0,0,0,7,3.52c.19.06.26,0,.32-.16A51.41,51.41,0,0,1,18,33.77a.47.47,0,0,0,0-.43c-.36-.76-.68-1.54-1-2.32-.49-1.25-.94-2.52-1.34-3.8,0-.11-.07-.17-.21-.13A22.88,22.88,0,0,0,9.76,29.5,9.24,9.24,0,0,0,7.1,31.78,3,3,0,0,0,6.43,33.42ZM19.71,54.25a3.35,3.35,0,0,0,.83-.06,4.16,4.16,0,0,0,.83-.25,21.84,21.84,0,0,0,2.92-1.42,21.38,21.38,0,0,0,3.93-3.1c.1-.08.11-.15,0-.25a6.52,6.52,0,0,1-.5-.55A53.28,53.28,0,0,1,24.06,44a.3.3,0,0,0-.26-.15c-.76-.07-1.52-.14-2.27-.23-1.31-.17-2.61-.38-3.9-.64-.17,0-.38-.17-.52-.07s-.11.33-.16.5a24.93,24.93,0,0,0-.66,4.86,13.83,13.83,0,0,0,.13,2.32,6.82,6.82,0,0,0,.7,2.34,2.17,2.17,0,0,0,1.23,1.15A3.87,3.87,0,0,0,19.71,54.25ZM43.33,48l0-.81A22.51,22.51,0,0,0,42.66,43c0-.19-.11-.24-.29-.2a46.27,46.27,0,0,1-6.52,1,.36.36,0,0,0-.28.18c-.29.43-.59.85-.89,1.27a49.12,49.12,0,0,1-3.14,3.9c-.12.14-.11.21,0,.32.48.43.95.88,1.45,1.29a17.63,17.63,0,0,0,4.63,3,6.09,6.09,0,0,0,2.65.58,1.92,1.92,0,0,0,1.27-.39A4.28,4.28,0,0,0,43,51.6,18,18,0,0,0,43.33,48Zm-27-29.54a19.36,19.36,0,0,0,.13,2.28,31.52,31.52,0,0,0,.62,3.47c0,.12.08.15.21.12.64-.14,1.28-.27,1.92-.38a38.1,38.1,0,0,1,4.38-.6.65.65,0,0,0,.53-.3C24.86,22,25.66,21,26.5,19.93c.54-.66,1.1-1.3,1.67-1.93.08-.09.1-.14,0-.23a24.93,24.93,0,0,0-3.79-3,10.86,10.86,0,0,0-4.66-1.88A2.35,2.35,0,0,0,17.25,14a4.93,4.93,0,0,0-.53,1.2A10.82,10.82,0,0,0,16.32,18.48Zm26.92.17a13.3,13.3,0,0,0-.08-1.55,8.11,8.11,0,0,0-.65-2.67,2.4,2.4,0,0,0-2.71-1.6,7.79,7.79,0,0,0-2.74.84,22,22,0,0,0-5.44,4c-.28.27-.28.27,0,.57a48.9,48.9,0,0,1,3.91,4.93.53.53,0,0,0,.42.25c.51,0,1,.07,1.51.14,1.63.21,3.24.49,4.83.85.16,0,.22,0,.26-.15A26.7,26.7,0,0,0,43.24,18.65Zm9.9,14.86A2.59,2.59,0,0,0,52.62,32a8,8,0,0,0-2.1-2,22,22,0,0,0-6.28-2.86c-.2-.07-.25,0-.31.18a48.3,48.3,0,0,1-2.33,6,.39.39,0,0,0,0,.35A47,47,0,0,1,44,39.79c.07.22.16.25.36.18a23.72,23.72,0,0,0,5-2.15,10.4,10.4,0,0,0,3-2.42A3.12,3.12,0,0,0,53.14,33.51ZM37.26,41.39a1.28,1.28,0,0,0,.45,0c1.38-.16,2.73-.41,4.09-.7.15,0,.2-.08.14-.25-.39-1.19-.83-2.37-1.31-3.53-.1-.25-.22-.5-.35-.81C39.33,37.91,38.34,39.66,37.26,41.39ZM19.34,36.17c0,.08-.06.1-.07.13-.59,1.39-1.1,2.81-1.56,4.26,0,.14,0,.16.13.18,1.29.27,2.59.49,3.89.65a1.29,1.29,0,0,0,.62,0C21.27,39.72,20.27,38,19.34,36.17ZM32.79,23.11,32.72,23c-.87-1.18-1.81-2.31-2.78-3.4-.14-.16-.2-.06-.29,0-.87,1-1.7,2-2.49,3l-.37.5C28.82,23,30.79,23,32.79,23.11Zm4.45,2.6c1.09,1.72,2.07,3.46,3,5.23l.06-.07c.58-1.37,1.09-2.76,1.54-4.17,0-.16,0-.19-.14-.21-.61-.12-1.21-.26-1.82-.37C39,26,38.16,25.83,37.24,25.71Zm-14.92,0-.4,0c-1.32.19-2.63.41-3.93.69-.29.07-.29.06-.2.35.42,1.32.89,2.63,1.43,3.91,0,.08,0,.17.13.23C20.25,29.15,21.25,27.43,22.32,25.72Z"/><path class="cls-1" d="M29.78,38.11a4.61,4.61,0,1,1,4.57-4.59A4.58,4.58,0,0,1,29.78,38.11Z"/></svg>