<svg xmlns="http://www.w3.org/2000/svg" id="Capa_1" data-name="Capa 1" viewBox="0 0 608 375"><defs/><defs><style>.cls-1{fill:#f29b00}.cls-2{fill:#6c0e35}.cls-3{fill:#84143d}.cls-4{fill:#010001}.cls-11,.cls-12,.cls-6{fill:none;stroke-miterlimit:10;stroke:#070506}.cls-6{stroke-width:.5px}.cls-7{fill:#070506}.cls-8{fill:#280c10}.cls-10{fill:#fff}.cls-11,.cls-12{stroke-width:1px}.cls-12{stroke-dasharray:2.52 2.52}.cls-13{fill:#804948}</style></defs><path d="M248 283a14 14 0 00-2-8c3-4 6-21-7-28-12-5-15-3-16-2 3-3 0-14-5-16s-11 0-11 0 0-1 9-2 14 9 14 9-2-14-13-14h-19s-4-3-16-1c-5 1-8 3-9 4 1-3 4-8 10-11 8-3 21 6 21 6-4-12-18-12-28-9s-8 13-8 13c-10 4-10 19-8 25s9 4 9 7-3 3-3 3c-2-6-9-1-9-1-13-7-21 7-21 7s-1-9 8-13 15 2 15 2c-11-20-29-8-33-3s-3 18-3 18c-7 7 2 27 2 27-15-10-8-29-6-31s3-6-2-3-5 9-5 9-6 1-9 10 5 16 5 16v7c0 7 11 15 14 14s-3-7-3-7 11 9 20 9 12-3 12-3l7 7c6 6 8 5 8 5l-10-14c-3-3 1-4 1-4s0-7 5-4 3 6 3 6 3 6 14 12 15 5 15 5c6 3 14 4 14 4s-14-4-12-7-18-6-20-14-2-18 5-16 12 10 13 12c-2-4-8-24-1-25 8-1 13-10 13-10 5 1 3 13-3 12s-6 3-5 8-2 6-2 6a11 11 0 015 6c1 4-1 6-1 6a54 54 0 0010 16c7 8 15 5 15 5-10 0-16-16-19-19s0-7 3-13-3-7-3-7a32 32 0 0010-2c4-1 4-5 4-5s0-3 5-4 14 9 4 16-11-2-11-2c-2 3 0 7 5 7a11 11 0 008-3 9 9 0 009-3c4-4 2-6 2-6s6-4 6-9zm-81 11a33 33 0 00-2-10c-3-9-9-5-9-4-1-3 0-9-5-9l-5 2c-1 0-6-2-10 2a4 4 0 001 6 13 13 0 004 2c-2-1-5 0-7 2-3 2-4 8 0 10-9-5-7-14-1-15a8 8 0 01-1-7c3-6 12-3 13-3 0 0 2-5 9-4 5 1 6 7 5 12a14 14 0 014-1c7 1 6 10 4 17zm28-42c-5 3-8 3-13 3s-12-6-12-12 3-5 3-5-5-6 1-10 14-2 14-2c-13 4-6 13-6 13-6 0-6 7-3 11s15-4 24-3c7 0 13 3 15 4a2 2 0 011 0h-1c-3-1-17-1-22 1z" class="cls-1"/><path d="M194 309a4 4 0 001 1l-1-1zM410 315v1a4 4 0 000-1z" class="cls-1"/><path d="M80 336l1-1h23a1 1 0 001-1 73 73 0 002-9h11l2 9 2 1h5l1 1v5l-1 1h-21c-1-3-2-4-5-4H83c-2 0-3 0-3-2zM101 283l1-1h3c2 0 2 0 3 3l4 16a1 1 0 000 1h-5l-1-2a67 67 0 00-4-15l-1-2zM116 317h-9v-7h7z" class="cls-2"/><path d="M107 325a73 73 0 01-2 9 1 1 0 01-1 1H87l2-5a31 31 0 001-3l1-2a5 5 0 001 0c2 0 3 0 3 2a1 1 0 001 1 1 1 0 001-1c1-2 3-2 5-2h5zM80 336c0 1 1 2 3 2h18c3 0 4 1 5 4H82c-2 0-2 0-2-2v-4zM101 283l1 2a67 67 0 014 15l1 2a3 3 0 01-1 0 7 7 0 01-2 0l-1-2-1-2c-1-1-1 0-2 1a24 24 0 00-1 2 1 1 0 01-1 1c-2 0-2 0-2-2l5-17zM108 310v7h-6l-1-1 1-5 1-1h5zM94 317c-2 0-2 0-1-2l1-4c1-2 1-1 2-1v6c0 2-1 1-2 1z" class="cls-3"/><path d="M403 345s2 3 16 2 16-10 16-10-10 9-19 8-14-3-13 0zM502 287c-3-9-9-10-9-10s0-6-5-9-4 1-2 3 9 21-6 31c0 0 9-20 2-27 0 0 2-13-3-18s-22-17-33 3c0 0 5-5 15-2s8 13 8 13-8-14-21-7c0 0-7-5-9 1 0 0-4 0-4-3s7-2 10-7 2-21-8-25c0 0 1-10-9-13s-23-3-28 9c0 0 14-9 22-6 6 3 9 8 10 11-1-2-4-3-9-4-12-2-17 1-17 1h-18c-11 0-13 14-13 14s6-10 14-9 8 2 8 2-6-2-10 0-9 13-6 16c0-1-3-3-15 2-13 7-10 24-7 28a14 14 0 00-3 8c0 4 7 9 7 9s-2 2 2 6a9 9 0 009 3 11 11 0 008 3c5 0 7-4 5-7 0 0-2 9-12 2s0-17 5-16 5 4 5 4 0 4 4 5a31 31 0 0010 2s-5 1-3 7 6 9 3 13-9 19-19 19c0 0 8 3 15-5a54 54 0 0010-16s-2-2-1-6a11 11 0 015-6s-3-1-2-6 0-8-6-8-7-11-2-12c0 0 5 9 12 10 8 1 1 21-1 25 2-2 7-10 13-12 8-2 8 9 5 16s-21 12-19 14-12 7-12 7 8-1 14-4c0 0 4 1 15-5s14-12 14-12-3-4 2-6 5 4 5 4 3 2 1 4l-9 14 7-6 8-6s2 3 11 3 21-9 21-9-6 5-3 7 14-7 14-14v-7s8-7 5-16zm-79-26c-5 0-8 0-14-3a55 55 0 00-23-1c2-1 9-4 16-5 9 0 20 8 23 4s3-11-3-11c0 0 8-9-5-13 0 0 9-1 14 2s1 10 1 10 3-1 3 5-6 12-12 12zm47 57s3-7-4-9c0 0 0-7-6-6a8 8 0 00-3 3s-4-4-6 0-1 6-1 6-4-4 0-8 7 0 7 0 3-5 8-3 3 7 3 7 9 2 2 10z" class="cls-1"/><path d="M386 248s0-7 5-9 12 2 12 2-14-3-17 7zM438 300c-2-7-3-16 4-17a15 15 0 014 1c-1-5-1-11 4-12 8-1 10 4 10 4 1 0 9-3 12 3a8 8 0 010 7c5 1 7 10-1 15 4-2 3-8 0-10-2-2-5-3-7-2a13 13 0 004-2 4 4 0 000-6c-4-4-8-2-9-2l-6-2c-4 0-4 6-4 9 0-1-6-5-9 4a33 33 0 00-2 10zM366 289c4-8 13-6 13-6s-2-6 5-10 14 3 14 3 1-4 10-4 7 9 9 11 12 0 12 6l-1 9c1-1 3-7 3-11 0-5-10-8-10-8a23 23 0 00-6-12c-4-6-12-2-12-2s-1-3-5-5-11 3-11 3a21 21 0 00-8 0c-5 1-7 6-7 11s-4 7-7 8c-2 1-6 6-5 13a22 22 0 003 3s-2 2 2 6a9 9 0 009 3s-12-9-8-18zM428 298zM457 331s-17 19-34 19c0 0 26-11 34-19z" class="cls-3"/><path d="M349 350a68 68 0 0022-1c11-2 22 3 25 1s-6-7-19-5-14 4-28 5zM376 312c0 1 2 4 5 3 0 0 4 0 3-2s-2 1-5-1-3 0-3 0zM386 312s0 3 1 2 0-4-1-2z" class="cls-1"/><path d="M435 217a32 32 0 013 6c1 3-1 4 1 4s3-2 2-4 0 0 0-4-2-8-5-7-5 0-9 0-4 3 0 3a28 28 0 018 2zM451 251s1-3 5-3 10 0 8-2-4 1-5-1 1-3-2-4-6 2-6 2-3 4-1 7l1 1z" class="cls-3"/><path d="M202 339s-2 3-16 2-17-10-17-10 11 9 19 8 15-3 14 0z" class="cls-1"/><path d="M219 242s0-7-5-9-12 2-12 2 14-3 17 7zM155 306s4-4 0-8-7 0-7 0-3-5-8-3-3 7-3 7-9 2-2 10c0 0-3-7 4-9 0 0 0-7 5-6a7 7 0 014 3s4-4 6 0 1 6 1 6zM239 283c-4-8-13-6-13-6s2-6-5-10-14 3-14 3-1-5-10-5-7 10-9 12-13 0-13 6l1 9-2-12c0-5 10-7 10-7a23 23 0 015-12c5-6 13-2 13-2s1-3 5-5 10 3 10 3a21 21 0 019 0c4 1 7 6 7 11s4 7 7 8c2 1 6 6 5 13a21 21 0 01-3 3s2 2-2 6a9 9 0 01-9 3s12-9 8-18zM176 292zM148 325s17 19 34 19c0 0-26-11-34-19zM256 344a68 68 0 01-22 0c-12-3-23 2-26 0s7-7 20-5 14 4 28 5z" class="cls-3"/><path d="M228 306c0 1-2 4-4 3 0 0-4 0-4-2s3 1 5-1 3 0 3 0zM219 306s0 3-1 2 0-3 1-2z" class="cls-1"/><path d="M170 211a32 32 0 00-3 6c-1 3 1 4-1 4s-3-2-2-4-1 0-1-4 3-8 6-7 4 0 8 0 5 3 1 3a28 28 0 00-8 2zM154 245s-1-3-5-3-10 0-8-2 4 1 4-1 0-3 3-4 6 2 6 2 2 4 1 6l-1 2z" class="cls-3"/><path d="M438 89s4-8-4-18-24-7-24-7-7-14-27-16-29 6-29 6l-17 2c5 4 13 9 17 9 9 0 17 24 32 29s3 25 3 25 5-23-8-23-11-1-3 11-4 31-4 31 1-16-7-25-31-10-28-1c0 0-37-15-44 7 0 0 2-18 12-22s28 2 28 2 2-6-4-6-2-10-12-10-15-7-23 2c0 0-3-10 9-14a45 45 0 0125 0s-1-7-10-7-25 6-25 6 7-14 13-16-4-5-1-9c2-2 9-1 14 1-3-20-34-8-34-8s-7-10-24-8-26 25-26 25a34 34 0 00-32-8c-19 5-23 26-23 26s-12-1-16 4-2 23-2 23-22-2-20 22 22 34 22 34a28 28 0 000 10c5-2 10-4 9-5-2-3 0-20 4-21s2 11 11 11 13-21 10-29 7-15 5-17c-1-2-11 10-10 9a12 12 0 001-9c-1-6-7-2-7-2s2 11-5 14-10 15-10 15l-1-13c-4 0-5 8-5 8s-3-22 4-30 12-9 12-9c0-10 16-16 17-20 2-7 13-7 27-7a120 120 0 0027-4s0-5 19-8 18 8 18 8-2-4-14-2-17 18-17 18-7-6-20-4-10 13-10 13c24-17 29 0 29 0 11 0 8 11 8 11s9 1 12 12-5 26-5 26-11-6-21 3-9 14-9 14-8-7-18-3-8 20-8 20c-10-19 6-43 6-43s-10 1-17 12-1 21-1 21l-6 7c-4 5 1 11 1 11-5-2-4-12-21-10-8 1-11 6-12 11a21 21 0 006 6c14 9 21 5 21 5a16 16 0 0010 3s-2 5 6 15 25 8 25 8 12 11 20 10 19 6 19 18-5 11-1 21 8 10 8 10 13 14 11 31c-3 19-17 48-17 48s19-31 21-37l-5 27 8-26 2 23 2-40s1 37 5 42c0 0-4-44 5-58s13-9 17-12 1-16 1-16 2-18 15-24 23-2 26-13 0-15 0-15 12 4 15 0a23 23 0 0021 4c13-4 15-10 15-10s15 5 26-7 6-36 6-36 7-10 10-29-18-33-29-33zm-149 41c10-6 24-6 35 0s7 17 7 17 6-2 11 6 0 16 0 16-2-11-8-15-10 0-10 0 7-14-2-18-35-11-42 12c0 0-2-12 9-18zm-26 58s-5-2-5 7 4 11 4 11-8 4-11-6-1-14-1-14-6 1-8-5-3-19 4-19 8 3 8 3-1-9 7-13 19 7 19 7-7-1-14 7-3 22-3 22zm77 24c-10 0-5-11-5-11s-7 3-8 2l-2-2s-11 23-9 26c0 0 8-5 11-1s-6 34-10 35l-4 1a26 26 0 00-4 11c-1 7-6 16-6 16s7-26 7-32-5-11-5-11l-2 13-4 33-5-34s2 6 4 4 3-14-7-22a22 22 0 01-8-18 54 54 0 01-10-8c-5-6 1-13 1-13s-9-4-6-17 12-11 12-11-8 21 2 28c0 0-6 7-3 10l7 9s0-10 3-10 17 6 17 18v-16c-1 3-12-5-7-17-1 1-3 4-10 0-8-4-7-21 0-28s25-10 28 1 3 16 3 16 4-10 9-8 5 15 5 15 14-20 23-11-7 32-17 32zm53-132s0-4-7-4-10 2-10 2 1-8 10-6c0 0 5-7 17-3s15 13 15 13-9-9-16-7-9 5-9 5zm-20 80s5 1 20-6c16-8 9-30 9-30 10 1 5 36 2 36s-4-3-4-3c-9 5-26 4-27 3zm20 22s16 8 26-3 6-22 6-22 8 0 8 14-14 28-40 11zm45-50s10-13 5-19c0 0 3-17-15-17 0 0 1-4 14 0s6 33-4 36zM203 343c18 14 47 21 69 10-23 9-48 2-69-10zM322 356c-6-2-11-8-12-14 1 13 14 22 30 14-6 1-13 2-18 0z" class="cls-1"/><path d="M335 38c-14-18-28-20-43-12-4-13-39-15-55 12 20-26 51-20 53-10v2c16-8 26-11 45 8zM422 38c-6-7-16-2-23 4-4-8-14-11-14-11s-15-5-28 10c-5 5-21 5-28 4 7 1 18 3 24 0 6-1 20-21 39-8 6 5 6 8 6 9 0 0 15-15 23-7 3 3 9 9 10 13-1-4-6-11-9-14z" class="cls-3"/><path d="M335 20c-3-7-10-15-18-19-8-3-17 2-22 9 13-10 24-11 40 10z" class="cls-1"/><path d="M463 160c4 4 3 12 2 17-2 16-6 28-34 25a38 38 0 0016 2c14-2 20-11 20-27 1-3 0-14-4-17zM368 234c-6 5-10 5-12 6a22 22 0 00-13 19c6-20 22-13 32-28 3-4 5-10 5-14-1 2-4 12-12 17zM261 231c-15-1-20 2-33-12 14 22 32 12 38 16 2 4-6 14 6 32-3-6-5-13-5-19 1-9 7-16-6-17z" class="cls-3"/><path d="M281 277s7 10 7 23-4 44-21 47-25 3-25 3 24 2 30-10 17-32 5-45-18-11-14-16 9 1 9 1 4-9 9-3z" class="cls-1"/><path d="M314 313s-3 22 7 32 15 0 7-4-14-14-14-28z" class="cls-3"/><path d="M475 231a1 1 0 102 1l1-6a7 7 0 00-2-1zM483 218h-4a1 1 0 00-2 2 1 1 0 002 1h1l-2 2a7 7 0 011 1l4-4a1 1 0 000-2zM489 145l-3-1a1 1 0 00-1 2l-8 4a1 1 0 101 2l11-4a1 1 0 000-3zM488 176a5 5 0 00-6 2l-2 5a5 5 0 108 4l3-5a5 5 0 00-3-6zm-2 10a2 2 0 11-4-2l2-5a2 2 0 014 2zM527 137a5 5 0 00-6-2l-5 2a5 5 0 103 8l5-2a5 5 0 003-6zm-9 6a2 2 0 01-3-1 2 2 0 011-3l5-2a2 2 0 012 4zM160 195a5 5 0 00-3-6l-5-1a5 5 0 10-3 8l5 2a5 5 0 006-3zm-11-1a2 2 0 112-4l5 2a2 2 0 11-1 4zM501 196a3 3 0 00-1-1v1a4 4 0 001 0zM518 193a5 5 0 00-6 1l-2 1a3 3 0 010 2 5 5 0 010-1l-1 1a2 2 0 002 1l2-3a2 2 0 114 3l-3 3a1 1 0 001 1l2-3a6 6 0 001 2l1-1a5 5 0 00-1-7zM509 218a1 1 0 01-1 1v1a2 2 0 01-4 0v-2a2 2 0 01-2 1v1a5 5 0 009 0v-4a6 6 0 01-2-2zM123 78a1 1 0 000 2l12 5a1 1 0 001-3l-9-3h1a1 1 0 10-1-2l-4 1zM122 115l2 5a5 5 0 109-4l-3-5a5 5 0 10-8 4zm2-1a2 2 0 114-2l2 5a2 2 0 01-4 2zM89 76l5 2a5 5 0 003-9l-5-1a5 5 0 10-3 8zm1-2a2 2 0 111-4l5 2a2 2 0 11-1 4zM124 139a3 3 0 010-1v1zM107 129a5 5 0 017 1l1 2a3 3 0 000 1 4 4 0 001-1l1 2a2 2 0 01-3 0l-2-2a2 2 0 00-3 2l2 4-3-3a6 6 0 010 2l-1-1a5 5 0 010-7zM126 155a1 1 0 001 0v1a2 2 0 004 0v-2a2 2 0 003 1v1a5 5 0 01-10 0v-4a6 6 0 002-1zM451 41a1 1 0 00-2 0l-7 5a1 1 0 000 2l4 6a1 1 0 002 1 1 1 0 001-2l-4-6 5-4a1 1 0 001-2zM467 59a1 1 0 00-2 2l4 6-6 4a1 1 0 001 2 1 1 0 001 0l7-5a1 1 0 000-2zM463 51a1 1 0 00-2 0l-8 10a1 1 0 102 2l8-10a1 1 0 000-2zM179 45v2h-5v-3a3 3 0 01-1 0 2 2 0 01-1 0v3a1 1 0 001 1h7a1 1 0 000-1v-2a3 3 0 01-1 0zM183 37a2 2 0 00-2-2l-2-6-10-4a1 1 0 00-1 0l2 12 5 3a2 2 0 00-1 1 2 2 0 001 1 2 2 0 002 0 2 2 0 001 0v-1a2 2 0 000-1l-1 1a1 1 0 01-1 0 1 1 0 010-1l5-4a1 1 0 011 0 1 1 0 010 1l-4 3a6 6 0 002 0l2-2v1a3 3 0 001-1v-1zm-9-4zm6 2l-5 4-4-2 1-1a1 1 0 00-1-1l-1 1-1-9 4 5a2 2 0 101-1l-4-5 8 4-1 1h2zM175 43a2 2 0 01-1 1h3a6 6 0 01-2-1zM113 224a1 1 0 101 0 1 1 0 00-1 0zM110 234a1 1 0 101 1 1 1 0 000-1 1 1 0 00-1 0zM121 223h1a19 19 0 004 6 1 1 0 101-1 17 17 0 01-3-6 1 1 0 001-1l-1-3a1 1 0 00-1-1l-3 1a1 1 0 00-1 1l1 3a1 1 0 001 1zm0-4h2v2h-2zM103 237a1 1 0 00-1 1 19 19 0 001 7h-1a1 1 0 000 2l2 2a1 1 0 001 1l3-2a1 1 0 000-1l-2-3a1 1 0 00-1 0 17 17 0 01-2-6 1 1 0 000-1zm3 10l-1 1-1-2h1zM118 205a3 3 0 00-1 3l-9 10h-1a1 1 0 00-1 0l-2 2a1 1 0 000 1v1l-9 10a3 3 0 100 4 2 2 0 001-3l6-6a18 18 0 00-2 6 1 1 0 001 1 1 1 0 001-1 19 19 0 014-10v1a1 1 0 001 0l3-3a1 1 0 000-1h-1a19 19 0 019-4 1 1 0 001-1 1 1 0 00-1-1 19 19 0 00-5 2l6-6a3 3 0 10-1-4zm-24 30a1 1 0 110-1 1 1 0 010 1zm13-15l1 1-1 1-1-1 1-1zm13-12a1 1 0 11-1-1 1 1 0 011 0 1 1 0 010 1z" class="cls-4"/><path d="M485 337l1-1h22a1 1 0 002-1 71 71 0 001-8h12l2 8 1 1h5l1 2v5h-21c-1-3-3-4-6-4h-18c-1 0-2 0-2-2zM506 285l1-1h2c3 0 3 0 3 3l5 15a1 1 0 000 1v1h-6v-3a67 67 0 00-4-14l-1-2zM521 318l-3 1-6-1v-6h7z" class="cls-2"/><path d="M511 327a71 71 0 01-1 8 1 1 0 01-2 1h-16l1-4a32 32 0 001-4 1 1 0 012-1 5 5 0 001 0c2 0 3 0 3 2a1 1 0 102 0c1-2 2-2 4-2a47 47 0 015 0zM485 337c0 2 1 2 2 2h18c3 0 5 1 6 4h-24c-2 0-2 0-2-2v-4zM506 285l1 2a67 67 0 014 14v3a7 7 0 01-3 0v-3l-2-2-1 2a25 25 0 00-1 2 1 1 0 01-1 1c-2 0-3 0-2-2l5-17zM512 312v7h-5l-1-1 1-5 1-1h4zM499 319c-2 0-2 0-2-2l1-4 2-1c2 0 1 1 1 1l-1 4-1 2z" class="cls-3"/><path d="M82 353c1-2 0-2-2-2H41a2 2 0 01-2-2 126 126 0 01-2-15H17l-4 15c0 2-1 2-3 2H2c-2 0-2 0-2 2v8l1 2h36c2-6 5-7 10-7h31c3 0 4-1 4-3zM47 261l-2-1h-5c-4 0-4 0-5 4l-8 28a1 1 0 010 1v1h10v-4a116 116 0 017-25c1-2 1-4 3-4zM20 319l5 1h10v-12H24h-1l-3 11z" class="cls-2"/><path d="M37 334a126 126 0 002 15 2 2 0 002 2h29l-2-8a56 56 0 01-2-7c0-1-1-2-3-2a9 9 0 01-2 0c-2 0-4 0-4 3a2 2 0 01-2 2 2 2 0 01-2-1c-1-4-5-4-8-4h-8zM82 353c0 2-1 3-4 3H47c-5 0-8 1-10 7h42c3 0 3 0 3-4v-6zM47 261c-2 0-2 2-3 3a116 116 0 00-7 26v4h5c2-1 1-3 1-4s0-4 2-4l3 3a43 43 0 012 4 2 2 0 001 1c4 0 4 0 3-3l-7-30zM35 308v12h9c2 0 2-1 2-2l-2-8c0-1 0-2-2-2h-7zM59 320c3 0 3 0 2-3l-2-7c0-3-2-2-4-2s0 2 0 3l1 6c0 2 1 3 3 3z" class="cls-3"/><path d="M607 353c1-2 0-2-1-2h-39a2 2 0 01-3-2 126 126 0 01-2-14v-1l-20 1-4 14c0 2-1 2-2 2h-8c-2 0-3 1-3 3v8l2 1h36c2-5 4-7 9-7h32c2 0 3-1 3-3zM571 261l-1-1h-5c-4 0-4 0-6 5l-7 27a1 1 0 010 2l10 1v-1-4a115 115 0 017-25l2-4zM546 320h14v-11-1l-11 1-3 11z" class="cls-2"/><path d="M562 335a126 126 0 002 14 2 2 0 003 2h29c-2-2-2-5-3-8a56 56 0 01-1-6l-3-3a8 8 0 01-3 0c-2 0-4 0-4 4a2 2 0 11-4 0c-1-4-4-4-8-4l-8 1zM607 353c0 2-1 3-4 3h-31c-5 0-7 2-9 7h41c4 0 4 0 4-4l-1-6zM571 261l-2 4a115 115 0 00-7 25v4a4 4 0 001 0h4c2-1 1-3 1-4s0-3 2-4l3 3a43 43 0 012 4 2 2 0 001 1c4 1 4 0 3-3l-8-30zM560 309v11h10l1-2-2-8c0-1 0-2-2-2l-7 1zM584 320c3 0 3 0 2-3l-2-7c0-3-2-2-4-1v2l1 7c0 2 1 3 3 2z" class="cls-3"/><path fill="none" stroke="#efc47f" stroke-miterlimit="10" stroke-width="4.5" d="M369 322c-1-9-4-15-5-16a39 39 0 00-9-11c2-3 1-4 1-6a31 31 0 000-9 33 33 0 00-2-7 16 16 0 003-2 13 13 0 003-6c1-3 1-8-2-9a5 5 0 00-2-1 18 18 0 00-2 0l-2 1a40 40 0 00-7 2l-2 1v-3l1-7a208 208 0 011-22v0l3-22 1-4a129 129 0 012-14c1-1 1-5-1-7a6 6 0 00-3-2h-3l-5-1h-4 0l-8-1h-12v0h-9v0a593 593 0 00-33 2 4 4 0 00-4 5l1 3v1a578 578 0 016 40v0a207 207 0 011 22v7h0v3l-1-1-4-1-3-1-2-1a18 18 0 00-2 0 5 5 0 00-3 1c-2 1-3 6-1 9a13 13 0 003 6 13 13 0 002 2 45 45 0 00-2 14 56 56 0 001 8 41 41 0 00-8 10 49 49 0 00-4 10c-3 11-1 24 0 30 2-2 3-4 6-5-1 1 0 11 7 17l9 6c0-2-2-3-1-4 2 2 5 3 9 4l12 3-1-5a21 21 0 00-3-8 43 43 0 009 7 45 45 0 0010 4c4 0 6-1 11-3l6-5-1 10a25 25 0 009-1 56 56 0 008-3 41 41 0 004-3 10 10 0 01-1 4c2-1 5-1 7-3a18 18 0 006-7c3-4 3-9 4-12l5 4 2-10a77 77 0 00-1-13zm-86-63h1l1 1h6v1h9l1 1h21l1-1h7l2-1h5l1-1h1v4l-3 2a53 53 0 01-5 1 76 76 0 01-8 2h-2a70 70 0 01-11 1h-2a197 197 0 01-10-1 76 76 0 01-8-2 53 53 0 01-6-1l-3-2v-4h1zm-6-54l-3-19-1-4h0a260 260 0 0135-2h19l7 1h4l6 1h2a2 2 0 011 1v3a133 133 0 00-2 14l-1 5-3 22a213 213 0 00-2 22v6h0-2 0-1l-1 1h-5l-1 1h-1 0-8l-1 1h-4 0-12 0-2v-1h-9l-1-1h-3 0-1l-1-1h-4 0v-6a213 213 0 00-2-22l-3-22zm-12 54a1 1 0 010 0 13 13 0 011 0l2 1 3 1h2v1a5 5 0 000 2h0a7 7 0 000 1c1 2 4 3 6 4a50 50 0 006 2l4 2a72 72 0 008 1l8 1h5v0h6l8-1a72 72 0 007-1l5-2a50 50 0 006-2l5-4a7 7 0 001-1h0a4 4 0 000-2v-1h2l3-1 1-1a13 13 0 012 0 1 1 0 010 0 7 7 0 010 5 9 9 0 01-2 4l-5 4a63 63 0 01-9 3 66 66 0 01-8 3 77 77 0 01-14 2h-16a77 77 0 01-14-2 66 66 0 01-8-3 63 63 0 01-8-3l-5-4a9 9 0 01-3-4 7 7 0 011-5z"/><rect width="4.3" height="4.3" x="281" y="370" class="cls-6" rx=".9" ry=".9" transform="rotate(-21 280 370)"/><rect width="4.3" height="4.3" x="331" y="358" class="cls-6" rx=".9" ry=".9" transform="rotate(-21 333 361)"/><path d="M285 372a19 19 0 013-2 22 22 0 014-2 28 28 0 0111-1c6 0 7 2 13 1a27 27 0 0010-3 27 27 0 005-3" class="cls-6"/><circle cx="291.4" cy="362.9" r="1.9" class="cls-7"/><circle cx="328.9" cy="372.3" r="1.9" class="cls-7"/><path d="M313 367a2 2 0 11-3-1 2 2 0 013 1z" class="cls-7"/><path d="M291 363l38 9" class="cls-6"/><path d="M255 348h5v5h-5zM361 348h5v5h-5zM255 242h5v5h-5zM361 242h5v5h-5z" class="cls-7"/><path d="M267 271c-1 4-3 10-2 16a57 57 0 000 8 41 41 0 00-8 10 48 48 0 00-3 10c-3 11-1 24-1 30 2-2 3-4 6-5 0 1 1 11 7 17 3 3 7 5 9 5l-1-3 9 4c4 2 10 2 13 3l-1-6a21 21 0 00-3-7 43 43 0 009 7 45 45 0 009 4c4-1 6-1 11-4l6-4-1 10a25 25 0 0010-2 55 55 0 007-2 39 39 0 004-3 9 9 0 010 4l7-3a18 18 0 006-7l3-12 5 4c2-3 2-6 2-11a77 77 0 00-1-12 52 52 0 00-4-16 39 39 0 00-9-11l1-6a31 31 0 00-1-10 31 31 0 00-2-6l-11 4-9 3-24 2-15-1a61 61 0 01-12-3l-12-6-4-1z" class="cls-8"/><path d="M272 186l3 19 3 22a209 209 0 012 22v7a137 137 0 0062 0v-7a207 207 0 012-22l3-22c1-6 1-13 3-19 0-1 1-3-1-5a4 4 0 00-2-1l-8-1h-3l-8-1h-15v-1h-4v1a533 533 0 00-26 1l-10 1a2 2 0 00-1 1 2 2 0 00-1 1l1 4z" class="cls-3"/><path d="M311 262a142 142 0 01-32-4h-1v-2-7a208 208 0 00-2-22 607 607 0 00-6-41l-1-3a4 4 0 011-3 4 4 0 013-2 241 241 0 0134-2v-1h8v1h13l7 1h4l6 1h2a6 6 0 014 2c2 2 1 5 1 6a130 130 0 00-3 14v5l-3 22a208 208 0 00-2 22v9h-2a135 135 0 01-31 4zm-29-8a135 135 0 0058 1v-6a213 213 0 012-22c0-8 1-15 3-22v-5a133 133 0 013-15v-2a2 2 0 00-1-1h-3l-5-1h-4l-8-1h-18a639 639 0 00-35 2h-1l1 4a617 617 0 016 41 210 210 0 012 22v6z" class="cls-8"/><path fill="#86183e" d="M358 258a3 3 0 00-2-1h-2l-1 1-3 1-4 1-3 1v1l1 2 1-1 1-1a2 2 0 010 1 5 5 0 010 1l-4 3a48 48 0 01-6 2l-5 2a70 70 0 01-7 1 74 74 0 01-8 1h-11a74 74 0 01-7-1 70 70 0 01-7-1l-5-2a48 48 0 01-6-2l-4-3a5 5 0 010-1 3 3 0 010-1v1l2 1a13 13 0 000-2 13 13 0 000-1 75 75 0 00-6-2l-3-1a18 18 0 00-4-1 3 3 0 00-1 1c-1 0-2 3-1 7a11 11 0 003 4l6 4a66 66 0 008 4 68 68 0 008 3 79 79 0 0015 2h16a79 79 0 0014-2 69 69 0 009-3 66 66 0 008-4l6-4a11 11 0 003-4c1-4 0-7-1-7z"/><path d="M311 284h-9a82 82 0 01-14-2 70 70 0 01-9-3 67 67 0 01-8-4c-4-2-6-3-7-5a13 13 0 01-3-5c-1-3 0-8 2-9a5 5 0 012-1 21 21 0 013 0l1 1a41 41 0 017 2l3 1h1v2a17 17 0 010 2v2h1a49 49 0 006 2l4 2a67 67 0 007 1l7 1h11l8-1a68 68 0 007-1l4-2a50 50 0 006-2h1v-1l-1-1a17 17 0 010-2l1-2h1l2-1 4-1 4-1 1-1a21 21 0 012 0 5 5 0 013 1c2 1 3 6 2 9a13 13 0 01-4 6l-6 4a67 67 0 01-9 4 70 70 0 01-8 3 82 82 0 01-15 2h-8zm0-4h8a77 77 0 0014-2 64 64 0 008-3 61 61 0 008-4l5-3a9 9 0 003-4 7 7 0 000-5 1 1 0 00-1 0h-1l-1 1-4 1h-2v1a4 4 0 010 2v1l-5 4a50 50 0 01-7 2l-4 2a72 72 0 01-8 1l-8 1h-11l-7-1a72 72 0 01-8-1l-5-2a49 49 0 01-6-2l-5-4v-1a5 5 0 010-2v-1h-3l-3-1a14 14 0 00-3-1 7 7 0 000 5 10 10 0 002 4l6 3a63 63 0 008 4 65 65 0 008 3 77 77 0 0014 2h8zm45-21zm-91 0zm0 0h92z" class="cls-8"/><path d="M283 285l3 2 2 1a2 2 0 00-1 2 3 3 0 002 2 4 4 0 002 0 3 3 0 003-1l2 1 4 2a9 9 0 01-3 3 9 9 0 01-3 0 13 13 0 01-5 0c-1-1-4-2-6-5a8 8 0 010-6v-1zM339 285l-3 2-2 1a2 2 0 010 2 3 3 0 01-2 2 4 4 0 01-2 0 3 3 0 01-2-1l-3 1-4 2a9 9 0 004 3 9 9 0 003 0 12 12 0 005 0l6-4a8 8 0 000-6v-2zM280 256v9a53 53 0 0010 3 79 79 0 008 2h2l9 1h2a72 72 0 0010-1h3a78 78 0 008-2 55 55 0 005-2l5-1v-9a137 137 0 01-62 0z" class="cls-10"/><path d="M312 273h-4l-8-1h-3a77 77 0 01-8-2 58 58 0 01-5-2l-5-2h-2l1-2v-10h2a135 135 0 0061 0h3v12h-1l-5 2a57 57 0 01-6 2 77 77 0 01-8 2h-2a79 79 0 01-10 1zm-12-5h9l2 1a70 70 0 0010-1h3a77 77 0 008-2 54 54 0 005-2l3-1v-4a139 139 0 01-58 0v4l3 1a53 53 0 005 2 76 76 0 008 2h3z" class="cls-8"/><path d="M364 349v2h-2" class="cls-11"/><path d="M360 351H260" class="cls-12"/><path d="M259 351h-1v-2" class="cls-11"/><path d="M258 347V247" class="cls-12"/><path d="M258 246v-1h1" class="cls-11"/><path d="M262 245h99" class="cls-12"/><path d="M362 245h2v1" class="cls-11"/><path d="M364 249v99" class="cls-12"/><path d="M267 298a26 26 0 002 4 25 25 0 003 4 36 36 0 00-4 8 39 39 0 000 17l1 3a21 21 0 003 8h1a51 51 0 01-3-14 37 37 0 011-9 36 36 0 011-6 19 19 0 011-3 16 16 0 012-2v1l2 1 2 1a36 36 0 00-3 7 34 34 0 00-1 4 38 38 0 001 7 39 39 0 001 6 62 62 0 004 8l4 5a17 17 0 01-3 0 16 16 0 01-3-1l3 2a56 56 0 016 5 28 28 0 012 3 11 11 0 012 3 11 11 0 010 3 66 66 0 01-6-2l-5-1-4-2a13 13 0 01-3-2 9 9 0 01-2-2 10 10 0 000 4 17 17 0 01-2-2 18 18 0 01-3-4 43 43 0 01-2-4 41 41 0 01-2-6 57 57 0 01-1-6 55 55 0 01-1-6v-10a40 40 0 00-1 4 42 42 0 000 7 53 53 0 000 6 9 9 0 00-3 1 9 9 0 00-2 1v-7a59 59 0 012-17 33 33 0 014-9 38 38 0 016-8zM355 298h-1a26 26 0 01-2 4 24 24 0 01-2 3v1a36 36 0 013 8 39 39 0 011 17 37 37 0 01-1 3 20 20 0 01-4 8 51 51 0 002-8 50 50 0 001-6 36 36 0 00-3-15 19 19 0 00-1-3 17 17 0 00-1-2l-1 1h-1l-2 2a36 36 0 012 7 32 32 0 011 4 37 37 0 010 7 37 37 0 01-1 6 61 61 0 01-5 8l-3 5a15 15 0 005-1l-2 2a57 57 0 00-7 5 28 28 0 00-2 3 10 10 0 00-1 3 11 11 0 00-1 3 66 66 0 007-2l5-1c2 0 2-2 3-2a13 13 0 004-2 9 9 0 001-2h1a10 10 0 010 1 10 10 0 01-1 2v1a17 17 0 003-2 17 17 0 003-4 40 40 0 002-4 41 41 0 002-6l1-6a60 60 0 001-6l-1-10h1a42 42 0 011 4 43 43 0 010 7 53 53 0 010 6 9 9 0 012 1 9 9 0 013 1v-7a58 58 0 00-2-17 33 33 0 00-4-9 37 37 0 00-6-8z" class="cls-13"/><path d="M321 312h-1a24 24 0 01-5 4 21 21 0 01-4 2 20 20 0 01-5-2 24 24 0 01-5-4 30 30 0 01-9 2 24 24 0 01-8-1h-1a31 31 0 00-1 6 31 31 0 000 6 45 45 0 005 17 48 48 0 0017 14 45 45 0 007 3c14-14 11-39 10-47z" class="cls-13"/><path fill="#581f1e" d="M340 319a32 32 0 00-2-6 24 24 0 01-8 1 30 30 0 01-9-2c1 8 4 33-10 47a45 45 0 007-3 48 48 0 0017-14 44 44 0 002-6 45 45 0 003-11 30 30 0 000-6z"/><path d="M328 321a17 17 0 00-2-5v-1h-1-3a12 12 0 00-6 3 13 13 0 00-2 3 1 1 0 01-1 0h-4a1 1 0 01-1-1l-1-1a11 11 0 00-5-3l-5-1h-1l-1 1v1a14 14 0 00-2 5v1a29 29 0 002 7l1 1 1 1a14 14 0 005-1 19 19 0 006-4 2 2 0 011-1h4a2 2 0 011 1 18 18 0 006 4 24 24 0 004 1l2-1a41 41 0 002-6 11 11 0 000-4zm-15 3a2 2 0 00-2-1v-1a2 2 0 011 1 3 3 0 011 1z" class="cls-7"/><path d="M313 324a2 2 0 00-2-1v-1a2 2 0 011 1 3 3 0 011 1zM323 319a1 1 0 010-1 1 1 0 011-1 1 1 0 011 0 5 5 0 011 5 5 5 0 010 2 4 4 0 00-1-2 3 3 0 00-1-2 5 5 0 01-1-1z" class="cls-10"/><path d="M353 285a49 49 0 000-6l-1-4-2 1a21 21 0 01-2 3 16 16 0 01-1 1 21 21 0 01-3 2 8 8 0 012 2c2 4-2 10-2 10a14 14 0 01-4 4 20 20 0 01-7 3 21 21 0 01-12-2 20 20 0 01-3-1 3 3 0 01-2-3 3 3 0 011-1l2-1 6-4 7-4a53 53 0 005-3l-4 1a88 88 0 01-15 2h-14a88 88 0 01-15-2l-4-1a52 52 0 004 3 240 240 0 0014 8l1 1a3 3 0 011 1 3 3 0 01-1 3 21 21 0 01-3 1 21 21 0 01-12 2 20 20 0 01-7-3 14 14 0 01-4-3c-1-1-4-7-2-11a8 8 0 012-2 22 22 0 01-3-2 15 15 0 01-2-1 19 19 0 01-1-3l-2-1-1 4a52 52 0 000 6 20 20 0 000 8 21 21 0 003 7 20 20 0 006 5 20 20 0 006 2 39 39 0 0013 0 28 28 0 006-2 27 27 0 004-3l1-2a3 3 0 012-1 3 3 0 011 0 5 5 0 012 1 4 4 0 012 2 27 27 0 004 3 28 28 0 005 2 39 39 0 0013 0 21 21 0 007-2 20 20 0 005-5 21 21 0 004-7 20 20 0 000-8z" class="cls-13"/><path d="M313 300a5 5 0 00-2-1 3 3 0 00-1 0 3 3 0 00-2 1 5 5 0 000 1 6 6 0 00-1 1 57 57 0 00-3 5 2 2 0 00-1 1 2 2 0 001 1 15 15 0 003 3 16 16 0 004 2 16 16 0 004-2 16 16 0 003-3 2 2 0 000-1 2 2 0 000-1l-2-3a18 18 0 00-2-3 4 4 0 00-1-1z" class="cls-1"/></svg>