<svg xmlns="http://www.w3.org/2000/svg" viewBox="0 0 7.5 7.5"><defs><style>.cls-1{fill:none;}</style></defs><title>cafe</title><g id="Guías"><rect class="cls-1" x="-68.09" y="-22.57" width="856.96" height="536.86"/></g><g id="Home"><path d="M7.35,3H6.15V2.71A.15.15,0,0,0,6,2.57H2.84a.15.15,0,0,0,0,.29h3V4a2.79,2.79,0,0,1-1.38,2.4H1.67A2.79,2.79,0,0,1,.29,4V2.86h1a.15.15,0,1,0,0-.29H.15A.15.15,0,0,0,0,2.71V4a3.07,3.07,0,0,0,1.15,2.4h-1A.15.15,0,0,0,0,6.53a1,1,0,0,0,1,1H5.54a1,1,0,0,0,1-1,.15.15,0,0,0-.15-.15H5a3.09,3.09,0,0,0,.68-.76h.41A1.41,1.41,0,0,0,7.5,4.22v-1A.15.15,0,0,0,7.35,3ZM6.19,6.68a.67.67,0,0,1-.66.53H1a.67.67,0,0,1-.66-.53H6.19ZM6.15,4V3.9h.47v.31a.53.53,0,0,1-.53.53h0A3.08,3.08,0,0,0,6.15,4Zm1.05.23A1.12,1.12,0,0,1,6.09,5.33H5.84A3.06,3.06,0,0,0,6,5h.12a.83.83,0,0,0,.82-.82V3.76a.15.15,0,0,0-.15-.15H6.15V3.32H7.2Z"/><path d="M3.21.81,3.14.71a.38.38,0,0,1,0-.48A.15.15,0,0,0,2.91.06a.67.67,0,0,0,0,.84L3,1a.5.5,0,0,1,0,.62l-.08.1a.15.15,0,1,0,.23.18l.08-.1A.79.79,0,0,0,3.21.81Z"/><path d="M4,1.14,4,1a.38.38,0,0,1,0-.48A.15.15,0,0,0,3.72.38a.67.67,0,0,0,0,.84l.08.1a.5.5,0,0,1,0,.62L3.72,2a.15.15,0,1,0,.23.18L4,2.13A.79.79,0,0,0,4,1.14Z"/><path d="M2.4,1.14,2.33,1a.38.38,0,0,1,0-.48A.15.15,0,1,0,2.1.38a.67.67,0,0,0,0,.84l.08.1a.5.5,0,0,1,0,.62L2.1,2a.15.15,0,1,0,.23.18l.08-.1A.79.79,0,0,0,2.4,1.14Z"/><path d="M2.2,2.61a.15.15,0,1,0,0,.1A.15.15,0,0,0,2.2,2.61Z"/><path d="M5.3,3.84A.15.15,0,0,0,5.15,4a2.1,2.1,0,0,1-.6,1.47.15.15,0,1,0,.21.21A2.39,2.39,0,0,0,5.45,4,.15.15,0,0,0,5.3,3.84Z"/><path d="M4.3,5.85a.15.15,0,0,0-.2-.06h0a.15.15,0,0,0,.07.27l.07,0h0A.15.15,0,0,0,4.3,5.85Z"/></g></svg>