<svg id="Capa_1" data-name="Capa 1" xmlns="http://www.w3.org/2000/svg" viewBox="0 0 20 20"><defs><style>.cls-1{fill:#ffba00;}</style></defs><title>compartir</title><path class="cls-1" d="M16.2,12.85a3.88,3.88,0,0,0-3,1.39L7.37,11.18A3.33,3.33,0,0,0,7.58,10a3.39,3.39,0,0,0-.21-1.19l5.82-3.06a3.86,3.86,0,0,0,3,1.4A3.69,3.69,0,0,0,20,3.58,3.69,3.69,0,0,0,16.2,0a3.69,3.69,0,0,0-3.79,3.58,3.33,3.33,0,0,0,.21,1.18L6.8,7.82a3.86,3.86,0,0,0-3-1.4A3.69,3.69,0,0,0,0,10a3.69,3.69,0,0,0,3.8,3.57,3.87,3.87,0,0,0,3-1.41l5.82,3.07a3.44,3.44,0,0,0-.22,1.19A3.7,3.7,0,0,0,16.21,20,3.69,3.69,0,0,0,20,16.42,3.69,3.69,0,0,0,16.2,12.85Z"/></svg>