<svg id="Capa_1" data-name="Capa 1" xmlns="http://www.w3.org/2000/svg" viewBox="0 0 24 24"><defs><style>.cls-1{fill:none;stroke:#000;stroke-linecap:round;stroke-linejoin:round;stroke-width:1.5px;}</style></defs><title>cv</title><path class="cls-1" d="M14,2H6A2,2,0,0,0,4,4V20a2,2,0,0,0,2,2H18a2,2,0,0,0,2-2V8Z"/><polyline class="cls-1" points="14 2 14 8 20 8"/><path d="M9.61,9.75H7.39a.75.75,0,0,1,0-1.5H9.61a.75.75,0,0,1,0,1.5Z"/><path d="M11.56,14v.2c0,.22-.08.29-.28.29h-.93c-.21,0-.3-.07-.3-.29v-.08c0-.45-.24-.64-.92-.64s-.92.19-.92.64v2.38c0,.45.24.65.92.65s.92-.2.92-.65v-.18c0-.21.09-.3.3-.3h.93c.2,0,.28.09.28.3v.3c0,1.08-.71,1.78-2.47,1.78s-2.45-.7-2.45-1.78V14c0-1.07.7-1.77,2.47-1.77S11.56,13,11.56,14Z"/><path d="M14.18,18.32c-.21,0-.24-.07-.31-.27l-1.79-5.4c-.07-.2.08-.3.28-.3h1c.22,0,.28.12.34.3l.87,2.72a8.65,8.65,0,0,1,.2,1.11,5.86,5.86,0,0,1,.24-1.1L16,12.65c.06-.18.12-.3.34-.3h.91c.22,0,.36.1.29.3l-1.9,5.4c-.07.2-.09.27-.3.27Z"/></svg>