<svg id="Capa_1" data-name="Capa 1" xmlns="http://www.w3.org/2000/svg" viewBox="0 0 20 20"><title>fecha</title><path d="M17.08,20H2.92A2.83,2.83,0,0,1,0,17.28V4.09A2.83,2.83,0,0,1,2.92,1.37H17.08A2.83,2.83,0,0,1,20,4.09V17.28A2.83,2.83,0,0,1,17.08,20ZM2.92,2.47A1.69,1.69,0,0,0,1.18,4.09V17.28A1.69,1.69,0,0,0,2.92,18.9H17.08a1.69,1.69,0,0,0,1.74-1.62V4.09a1.69,1.69,0,0,0-1.74-1.62Z"/><rect x="4.02" width="1.1" height="4.07" rx="0.44" ry="0.44"/><rect x="14.27" width="1.1" height="4.07" rx="0.44" ry="0.44"/><rect x="9.45" y="5.72" width="1.1" height="11.8" rx="0.55" ry="0.55" transform="translate(11.14 -3.67) rotate(45)"/><rect x="9.45" y="5.72" width="1.1" height="11.8" rx="0.55" ry="0.55" transform="translate(-5.29 10.47) rotate(-45)"/></svg>