<svg id="Capa_1" data-name="Capa 1" xmlns="http://www.w3.org/2000/svg" viewBox="0 0 541.82 43.93"><defs><style>.cls-1{fill:#ff9800;}</style></defs><title>flujo-frontend</title><ellipse cx="3.1" cy="33.28" rx="3.1" ry="3.26"/><polygon points="30.18 43.93 2.02 43.93 2.02 9.05 35.36 9.05 35.36 38.94 33.4 38.94 33.4 11.12 3.98 11.12 3.98 41.87 30.18 41.87 30.18 43.93"/><path d="M26.71,25.34c-.08,1.14-.13,2.18-.22,3.22-.2,2.22-.39,4.45-.62,6.67a1,1,0,0,1-.55.71c-1.88.6-3.77,1.14-5.67,1.68a1.67,1.67,0,0,1-.83,0c-1.88-.53-3.74-1.11-5.62-1.63a.77.77,0,0,1-.66-.83c-.1-1.54-.26-3.07-.4-4.66H15.4c.07.69.18,1.37.2,2a.68.68,0,0,0,.61.78c.82.19,1.62.47,2.44.66a3.2,3.2,0,0,0,1.07,0,7.79,7.79,0,0,0,.92-.24c2.16-.6,2.16-.6,2.32-2.91.05-.63.09-1.26.14-2H12.68c-.38,0-.69,0-.74-.57-.23-2.94-.5-5.88-.76-8.82,0-.27,0-.54,0-.87H27.32c-.09,1.05-.14,2.06-.3,3.05,0,.18-.51.4-.78.4-3.49,0-7,0-10.48,0h-1L15,25.34Z"/><path d="M217.26,43.93a2.93,2.93,0,0,0-.59-.11A2.1,2.1,0,0,1,215,42.45a4.33,4.33,0,0,1-.13-3.05,5.9,5.9,0,0,1,1.79-2.71,22,22,0,0,1,4.66-3.19,1.2,1.2,0,0,0,.35-.22,12.8,12.8,0,0,0-1.23-1c-1.19-.88-2.41-1.71-3.54-2.68a13.13,13.13,0,0,1-2.59-2.77,7.51,7.51,0,0,1-.87-1.83,4.44,4.44,0,0,1,.1-2.72,10.63,10.63,0,0,1,1.84-3.37,20.33,20.33,0,0,1,5-4.43,32.53,32.53,0,0,1,7.28-3.56,16.05,16.05,0,0,1,4.5-.84,11.94,11.94,0,0,1,4.48.6,6.36,6.36,0,0,1,2.55,1.61,4.49,4.49,0,0,1,1.16,2.64A7.92,7.92,0,0,1,239,20a11.22,11.22,0,0,1-6.25,4.85,14.59,14.59,0,0,1-5.11.77,5.43,5.43,0,0,1-3.48-1.24,2.67,2.67,0,0,1-.92-1.31.29.29,0,0,1,0-.1c0-.16-.07-.33.1-.43s.27,0,.37.15a4,4,0,0,0,2.84,1.35A11.35,11.35,0,0,0,232.09,23a11.37,11.37,0,0,0,4.22-3.1,7.15,7.15,0,0,0,1.63-3,3.83,3.83,0,0,0,.06-1.65,2.36,2.36,0,0,0-1.19-1.63,5.55,5.55,0,0,0-2.27-.72,13.83,13.83,0,0,0-6.49.9,27.39,27.39,0,0,0-8.2,4.73,10.4,10.4,0,0,0-2.67,3.21,5.47,5.47,0,0,0-.62,2.7,4.56,4.56,0,0,0,.91,2.51,12.84,12.84,0,0,0,2.26,2.28c1,.83,2,1.6,3,2.51.17.17.35.34.5.52s.14.11.25,0c1.15-.67,2.29-1.34,3.45-2a3.74,3.74,0,0,0,1.14-1,6.42,6.42,0,0,1,2.44-1.92,2.36,2.36,0,0,1,.9-.2,1.29,1.29,0,0,1,1.36,1.17,4.27,4.27,0,0,1,0,1.47.45.45,0,0,0,0,.2c.13-.05.23-.19.38-.21a1.05,1.05,0,0,1,.85.24.56.56,0,0,1,.18.54c-.14.69-.35,1.36-.51,2-.21.86-.43,1.72-.58,2.59a3.39,3.39,0,0,0,0,1.23c.14,0,.17-.16.22-.26.44-.82.82-1.68,1.19-2.54.86-2,1.73-4.05,2.56-6.09a9.28,9.28,0,0,0,.42-1.48.5.5,0,0,1,.34-.4,4,4,0,0,1,1.87-.15,1,1,0,0,1,.28.11.37.37,0,0,1,.18.51,9,9,0,0,0-.47,1.84,5.21,5.21,0,0,0,.44,2.73c.08.15.15.3.24.49l.47-.83a42.7,42.7,0,0,0,2-3.88,12.73,12.73,0,0,0,.43-1.61.77.77,0,0,1,.66-.63,4.2,4.2,0,0,1,1.54-.09,1.21,1.21,0,0,1,.32.11.39.39,0,0,1,.21.54,8.56,8.56,0,0,0-.46,1.79,5.25,5.25,0,0,0,.45,2.82c.15.28.29.57.42.86.06.12.12.13.22.08a8.31,8.31,0,0,1,4-.88,6.23,6.23,0,0,1,4,1.38,4.57,4.57,0,0,1,1.74,3.17v.68a3,3,0,0,1-1.77,2.46,1.11,1.11,0,0,1-.43.12.18.18,0,0,1-.2-.14.17.17,0,0,1,.07-.22c.12-.1.25-.18.38-.27a2.38,2.38,0,0,0,.75-3.16,4,4,0,0,0-2.31-2,8.39,8.39,0,0,0-3.81-.45,6.88,6.88,0,0,0-1.88.45c-.16.06-.18.13-.12.29a2.88,2.88,0,0,1,.15.5,3,3,0,0,1-.43,2.69,5.51,5.51,0,0,1-3.19,2.06,1,1,0,0,1-1.29-1,3.34,3.34,0,0,1,.37-1.73,7.89,7.89,0,0,1,2-2.57.25.25,0,0,0,.07-.37,8.89,8.89,0,0,1-.77-2c-.1-.44-.2-.88-.31-1.34l0,.08A36.59,36.59,0,0,1,241,32.51a.2.2,0,0,0,0,.23,7.84,7.84,0,0,1,.33,1,3.33,3.33,0,0,1-.56,3,4.92,4.92,0,0,1-4.15,1.75c-.74,0-1-.66-.58-1.32q.16-.26.36-.51c.81-1.09,1.73-2.1,2.49-3.24a.36.36,0,0,0,0-.41,11.13,11.13,0,0,1-1-2.44c-.08-.4-.17-.79-.27-1.21l-.05.1a62.48,62.48,0,0,1-3.72,8.15A4,4,0,0,1,232.85,39a1,1,0,0,1-1,.14,1.21,1.21,0,0,1-.6-.74,5.45,5.45,0,0,1-.18-2.09c0-.15,0-.3,0-.46-.26.52-.47,1-.7,1.56a10.56,10.56,0,0,1-1,1.79,1.5,1.5,0,0,1-2.47,0,6.94,6.94,0,0,1-1-3.58,10.81,10.81,0,0,1,.25-2.27,10.36,10.36,0,0,1,.31-1.18c-.12.07-.2.1-.27.15l-1.75,1c-.12.07-.29.13-.34.24s.09.27.13.4a7.5,7.5,0,0,1,.19,4.17,7.17,7.17,0,0,1-5.16,5.62c-.27.08-.55.12-.83.18ZM223,35.85a7.2,7.2,0,0,0-.17-1.47c0-.14-.07-.16-.2-.08a23.57,23.57,0,0,0-2.87,2,6.81,6.81,0,0,0-1.79,2,3.64,3.64,0,0,0-.57,2.19.9.9,0,0,0,.82.9,2.33,2.33,0,0,0,1.05-.13A5.8,5.8,0,0,0,223,35.85Zm5.17-.56a4.4,4.4,0,0,0,.23,1.45c.16.37.37.4.61.08a3.42,3.42,0,0,0,.47-.86,47,47,0,0,0,1.93-5.41,8.59,8.59,0,0,0,.24-1.12c.05-.38-.11-.54-.48-.44a1.69,1.69,0,0,0-.31.13,2.86,2.86,0,0,0-.91.82A9.11,9.11,0,0,0,228.15,35.29Zm17.28-2.1a1.92,1.92,0,0,0-.07-.55c0-.13-.05-.17-.17-.06a5.59,5.59,0,0,0-1.52,2.62.8.8,0,0,0,0,.27c0,.11.05.17.19.12A2.45,2.45,0,0,0,245.43,33.19Zm-5.8,1.29c-.26.34-.48.64-.71.93-.41.54-.86,1-1.3,1.55,0,0-.12.09-.07.16s.11,0,.16,0A2.06,2.06,0,0,0,238,37a4.53,4.53,0,0,0,1.13-1A2.35,2.35,0,0,0,239.63,34.48Zm-8.52,1.25v0a0,0,0,0,0,0,0Z"/><path d="M388.18,19.88l-1.66,1-4.4,2.67-2.46,1.5a.24.24,0,0,1-.29,0l-6-3.65L371,20a.69.69,0,0,1-.13-.11c.05-.08.14-.1.21-.15l5.12-3c1-.58,2-1.16,3-1.76a.54.54,0,0,1,.62,0l5.74,3.32L388,19.75A.3.3,0,0,1,388.18,19.88Z"/><path d="M380.15,26.26l3-1.85,5-3c.16-.1.33-.2.48-.31s.09,0,.11,0a1,1,0,0,0,0,.17v9.64a7,7,0,0,1-1,.57q-2.19,1.27-4.4,2.53l-3.25,1.89c-.06-.06,0-.13,0-.2Z"/><path d="M378.89,35.85c-.06.14-.15,0-.19,0L377.17,35,370.37,31l-.12-.08V21.21c0-.05,0-.11,0-.15l5.76,3.49,2.56,1.55c.1.06.22.09.28.21s0,.11,0,.17v9.2C378.88,35.74,378.89,35.8,378.89,35.85Z"/><path d="M395.2,34.66,393,33.32l-2.78-1.68a.28.28,0,0,1-.17-.26c0-.15,0-.3,0-.45,0-3.48,0-6.95,0-10.43a.35.35,0,0,1,.19-.35l4.85-2.94c.11-.07.17-.06.15.09V34.66Z"/><path d="M363.84,17.14l2.2,1.33,2.76,1.67a.34.34,0,0,1,.19.34q0,5.41,0,10.84a.31.31,0,0,1-.16.31L364,34.57l-.14.07Z"/><path d="M380.17,7.43l.17.1,3.85,2.28,3.94,2.35,5.16,3.07,1.12.66s.12,0,.13.1-.07.08-.12.1L389.74,19a.47.47,0,0,1-.54,0l-5.55-3.22-3.38-2a.25.25,0,0,1-.16-.26c0-2,0-3.95,0-5.92C380.12,7.55,380.09,7.47,380.17,7.43Z"/><path d="M364.45,16,366,15l4.87-2.9,4.24-2.52,3.54-2.1c.05,0,.11-.11.17-.06s0,.12,0,.18c0,2,0,3.93,0,5.89a.29.29,0,0,1-.16.28l-6.88,4L369.72,19a.26.26,0,0,1-.3,0l-4.94-3S364.47,16,364.45,16Z"/><path d="M394.22,35.58l-1.17.69-5.54,3.3L383,42.26l-2.67,1.59c-.14.09-.19.1-.19-.1q0-3.07,0-6.15a.26.26,0,0,1,.14-.25l6.76-3.9,1.75-1a.26.26,0,0,1,.3,0l5,3Z"/><path d="M378.85,43.93l-14.06-8.36,1.42-.86,3.67-2.23a.37.37,0,0,1,.44,0l5.6,3.24c.91.53,1.83,1.06,2.74,1.57a.4.4,0,0,1,.23.4c0,2,0,4,0,6A.46.46,0,0,1,378.85,43.93Z"/><path d="M517.91,12.75c1.26,1.34,2.48,2.61,3.67,3.91a.86.86,0,0,1,.11.6,3,3,0,0,0,1.26,3.2.88.88,0,0,1,.32.63c0,3.06,0,6.11,0,9.17a1.16,1.16,0,0,1-.47.74,3,3,0,0,0-1,3.21,2.68,2.68,0,0,0,5.16.11,2.87,2.87,0,0,0-.89-3.2,1,1,0,0,1-.44-1c0-2.83,0-5.66,0-8.49l0-.59.2-.17c.28.36.53.74.84,1.08.69.75,1.39,1.49,2.11,2.22a.82.82,0,0,1,.25.86,2.84,2.84,0,0,0,2.3,3.45,2.76,2.76,0,0,0,3.05-2.46,2.87,2.87,0,0,0-2.45-3.24.72.72,0,0,0-.29,0c-.75.3-1.19-.16-1.65-.67-.87-1-1.8-1.88-2.67-2.85a1.23,1.23,0,0,1-.26-.85,2.82,2.82,0,0,0-3.14-3.28.94.94,0,0,1-.71-.2c-1.14-1.16-2.23-2.36-3.36-3.52-.29-.29-.26-.47,0-.74.88-.9,1.74-1.83,2.61-2.74A2.19,2.19,0,0,1,526,8q5,5.23,10,10.49,2.44,2.56,4.88,5.14a2.46,2.46,0,0,1,0,3.88L526.12,43c-1.23,1.3-2.41,1.29-3.65,0L507.68,27.43c-1.31-1.38-1.31-2.59,0-4l9.69-10.18C517.53,13.11,517.69,13,517.91,12.75Z"/><path d="M315.48,7.43l.61.13a3.36,3.36,0,0,1,2,1.65,7.37,7.37,0,0,1,.85,2.64,14.12,14.12,0,0,1,.13,2.6,24.28,24.28,0,0,1-.47,3.71l-.12.55c0,.09,0,.15.1.18a20.24,20.24,0,0,1,3.94,1.64,10.54,10.54,0,0,1,2.82,2.16,4.67,4.67,0,0,1,1.27,2.47,3.73,3.73,0,0,1-.43,2.29A7.53,7.53,0,0,1,324,29.91,16.31,16.31,0,0,1,320,32q-.63.26-1.29.45c-.1,0-.14.07-.11.2a22.46,22.46,0,0,1,.51,3.06,15.57,15.57,0,0,1,.07,1.93,11.19,11.19,0,0,1-.5,3.3,4.53,4.53,0,0,1-1.56,2.33,3.1,3.1,0,0,1-1.51.59,6.05,6.05,0,0,1-3.15-.6A14.61,14.61,0,0,1,308.84,41a18.93,18.93,0,0,1-1.47-1.36c-.11-.11-.17-.12-.28,0a18.31,18.31,0,0,1-4.35,3.3,8.62,8.62,0,0,1-2.67,1,3.57,3.57,0,0,1-4.23-2.3,8.47,8.47,0,0,1-.61-2.63,16.3,16.3,0,0,1,.1-3.56,24.28,24.28,0,0,1,.45-2.55c0-.14,0-.19-.12-.23a17.7,17.7,0,0,1-5-2.36,8.39,8.39,0,0,1-2.39-2.43,3.83,3.83,0,0,1,.11-4.43A8.57,8.57,0,0,1,291,20.92a18.4,18.4,0,0,1,4.63-2c.12,0,.18-.07.14-.23a24.16,24.16,0,0,1-.47-2.54c-.07-.56-.12-1.12-.14-1.68a12.19,12.19,0,0,1,0-1.71,7.38,7.38,0,0,1,1.15-3.84,3.19,3.19,0,0,1,2.37-1.38,6.1,6.1,0,0,1,3,.57,15.1,15.1,0,0,1,3.86,2.47,16.08,16.08,0,0,1,1.43,1.31c.1.11.16.09.25,0a19.37,19.37,0,0,1,3.78-3.05,9.27,9.27,0,0,1,3.09-1.27,3,3,0,0,0,.51-.09ZM304.92,34c-.05,0,0,0,0,.07.64.89,1.32,1.75,2,2.58.26.3.26.31.51,0,.7-.82,1.36-1.69,2-2.58,0,0,0,0,0-.06C308,34,306.44,34.06,304.92,34Zm-.25-14.84a6.24,6.24,0,0,0-.78,0,.52.52,0,0,0-.48.3,50.53,50.53,0,0,0-3.3,6.05.31.31,0,0,0,0,.31,51.49,51.49,0,0,0,3.4,6.18.37.37,0,0,0,.29.17c.56,0,1.13.06,1.69.06,1.66,0,3.31,0,5-.09a.46.46,0,0,0,.4-.23,58.69,58.69,0,0,0,3.34-6.14.3.3,0,0,0,0-.29,58.71,58.71,0,0,0-3.38-6.12.35.35,0,0,0-.33-.2c-.74,0-1.47-.09-2.21-.11A33.39,33.39,0,0,0,304.67,19.16ZM289.3,25.58a1.94,1.94,0,0,0,0,.24,3.88,3.88,0,0,0,1.42,2.27,15,15,0,0,0,5.35,2.8c.14,0,.2,0,.24-.13a41.56,41.56,0,0,1,1.8-4.9.39.39,0,0,0,0-.35c-.27-.6-.51-1.22-.75-1.84-.38-1-.72-2-1-3,0-.09,0-.14-.16-.11a17.73,17.73,0,0,0-4.34,1.92,7.29,7.29,0,0,0-2,1.81A2.55,2.55,0,0,0,289.3,25.58Zm10.15,16.57a2.24,2.24,0,0,0,.63,0,2.78,2.78,0,0,0,.64-.19A17.28,17.28,0,0,0,303,40.78a16.92,16.92,0,0,0,3-2.47c.07-.07.08-.12,0-.2s-.26-.29-.38-.43A44.05,44.05,0,0,1,302.78,34a.27.27,0,0,0-.2-.12l-1.74-.18c-1-.13-2-.3-3-.51-.13,0-.29-.14-.4-.06s-.08.27-.12.41a20.1,20.1,0,0,0-.5,3.86,10.39,10.39,0,0,0,.1,1.85,5.75,5.75,0,0,0,.53,1.86,1.65,1.65,0,0,0,.94.91A2.8,2.8,0,0,0,299.45,42.15Zm18.06-4.95,0-.65a17.45,17.45,0,0,0-.49-3.37c0-.15-.08-.19-.22-.16a33.54,33.54,0,0,1-5,.8.26.26,0,0,0-.21.14c-.23.34-.45.68-.69,1-.75,1.07-1.55,2.11-2.4,3.1-.09.11-.08.17,0,.25.37.34.73.7,1.1,1a13.9,13.9,0,0,0,3.55,2.36,4.6,4.6,0,0,0,2,.46,1.41,1.41,0,0,0,1-.32A3.39,3.39,0,0,0,317.24,40,15.88,15.88,0,0,0,317.51,37.2ZM296.86,13.69a13.63,13.63,0,0,0,.1,1.81,23,23,0,0,0,.47,2.76c0,.11.06.13.16.1q.74-.16,1.47-.3a29.05,29.05,0,0,1,3.35-.48.5.5,0,0,0,.41-.24c.57-.86,1.18-1.69,1.82-2.49.41-.53.84-1,1.28-1.54.06-.07.07-.11,0-.18a19,19,0,0,0-2.9-2.4,8.26,8.26,0,0,0-3.56-1.5,1.79,1.79,0,0,0-1.89.88,4.09,4.09,0,0,0-.41,1A9.21,9.21,0,0,0,296.86,13.69Zm20.58.14c0-.41,0-.83-.06-1.24a6.7,6.7,0,0,0-.5-2.12,1.84,1.84,0,0,0-2.07-1.28,5.89,5.89,0,0,0-2.1.68A16.63,16.63,0,0,0,308.55,13c-.21.21-.21.21,0,.45a38.27,38.27,0,0,1,3,3.93.41.41,0,0,0,.33.19c.39,0,.77.06,1.15.11,1.24.17,2.48.39,3.7.68.11,0,.16,0,.19-.12A21.12,21.12,0,0,0,317.44,13.83ZM325,25.65a2.14,2.14,0,0,0-.4-1.18,6,6,0,0,0-1.61-1.6,16.74,16.74,0,0,0-4.79-2.28c-.16-.05-.2,0-.24.14a41.6,41.6,0,0,1-1.78,4.79.31.31,0,0,0,0,.28A39.39,39.39,0,0,1,318,30.65c0,.18.11.19.27.14a17.84,17.84,0,0,0,3.81-1.71,8,8,0,0,0,2.28-1.93A2.54,2.54,0,0,0,325,25.65Zm-12.14,6.27a1.19,1.19,0,0,0,.34,0c1.05-.13,2.09-.33,3.12-.56.12,0,.16-.07.11-.2-.3-.95-.63-1.89-1-2.81l-.26-.64C314.45,29.15,313.69,30.54,312.87,31.92Zm-13.7-4.15-.06.1c-.44,1.11-.84,2.24-1.19,3.39,0,.11,0,.13.1.14,1,.22,2,.39,3,.52a.92.92,0,0,0,.47,0C300.64,30.59,299.88,29.21,299.17,27.77Zm10.28-10.39a.64.64,0,0,0-.06-.1c-.66-.94-1.38-1.83-2.12-2.71-.11-.12-.16,0-.22,0-.66.77-1.3,1.56-1.91,2.38l-.28.4C306.41,17.31,307.92,17.31,309.45,17.38Zm3.4,2.07c.84,1.37,1.59,2.74,2.3,4.16l.05-.06c.44-1.09.83-2.19,1.18-3.32,0-.12,0-.15-.11-.17l-1.4-.29C314.22,19.64,313.56,19.54,312.85,19.45Zm-11.4,0-.31,0c-1,.15-2,.32-3,.55-.22,0-.22,0-.15.27.32,1.06.68,2.1,1.09,3.12,0,.06,0,.13.1.17C299.87,22.18,300.62,20.81,301.45,19.45Z"/><path d="M307.15,29.31a3.66,3.66,0,1,1,3.49-3.65A3.57,3.57,0,0,1,307.15,29.31Z"/><path d="M172.38,24.82a7.81,7.81,0,0,0-.62-.81,1.81,1.81,0,0,0-2-.48,1.41,1.41,0,0,0-.5,2.28,4.34,4.34,0,0,0,1.1.74c.83.43,1.69.8,2.52,1.22A6.14,6.14,0,0,1,174.54,29a4.57,4.57,0,0,1,1.19,3.52,4.25,4.25,0,0,1-1.08,2.79,4.47,4.47,0,0,1-2.41,1.36,6.92,6.92,0,0,1-5.36-.79,5.55,5.55,0,0,1-2-2.17s0-.09-.07-.14a1,1,0,0,1,0-.11l2.53-1.54c.19.26.35.51.54.76a3.15,3.15,0,0,0,3.82.94,1.47,1.47,0,0,0,.2-2.54,10.27,10.27,0,0,0-1.62-.9,16.41,16.41,0,0,1-2.59-1.36,4.5,4.5,0,0,1-1.91-3.07,4.27,4.27,0,0,1,3.38-5.14,5.41,5.41,0,0,1,3.52.36,4.7,4.7,0,0,1,2.11,2.18Z"/><path d="M163.17,20.68c0,.12,0,.2,0,.27,0,3.77,0,7.54,0,11.31a4.62,4.62,0,0,1-1.45,3.58,4.17,4.17,0,0,1-2.23,1,5.89,5.89,0,0,1-2.94-.25,4.78,4.78,0,0,1-2.67-2.5c0-.1-.13-.2,0-.29l2.45-1.56.4.67a1.93,1.93,0,0,0,1.16,1,2.12,2.12,0,0,0,1.17-.05,1.4,1.4,0,0,0,.89-1.32,5,5,0,0,0,0-.67V21.15a1.61,1.61,0,0,1,0-.31c0-.06.1-.15.15-.15Z"/><ellipse cx="147.83" cy="33.28" rx="3.1" ry="3.26"/><polygon points="174.91 43.93 146.75 43.93 146.75 9.05 180.1 9.05 180.1 38.94 178.13 38.94 178.13 11.12 148.72 11.12 148.72 41.87 174.91 41.87 174.91 43.93"/><ellipse cx="75.47" cy="33.28" rx="3.1" ry="3.26"/><polygon points="102.55 43.93 74.38 43.93 74.38 9.05 107.73 9.05 107.73 38.94 105.77 38.94 105.77 11.12 76.35 11.12 76.35 41.87 102.55 41.87 102.55 43.93"/><path d="M99.62,18.7c-.71,0-1.42,0-2.12,0l-5.81,0a0,0,0,0,0,0-.05l-.5,0H84.08c-.22,0-.41,0-.37.33.1.91.17,1.81.23,2.72,0,.25.12.33.35.32h1.53l5.87,0h3.82c.17,0,.34,0,.51,0h0c.22,0,.17.22.16.39C96.1,23.26,96,24.12,96,25c0,.37-.09.51-.48.5-1.26,0-2.52,0-3.78,0v0c-1.16,0-2.32,0-3.48,0-.24,0-.35,0-.31.34.1.87.16,1.75.21,2.62,0,.33.11.43.43.42,1,0,2.09,0,3.14,0h3.92c-.11,1.36-.23,2.71-.33,4.07,0,.24-.14.28-.32.33l-3.18.91-.09,0c-1.16-.22-2.27-.64-3.41-.91-.17,0-.16-.19-.17-.33,0-.66-.13-1.33-.16-2,0-.33-.13-.43-.44-.42-.81,0-1.62,0-2.43,0-.35,0-.39.13-.36.44.14,1.5.28,3,.4,4.5a.4.4,0,0,0,.35.44c2,.59,4.09,1.2,6.14,1.8l.09,0h.17L98,35.86a.38.38,0,0,0,.3-.41c0-.49.08-1,.12-1.47.16-1.82.32-3.65.47-5.47.13-1.54.27-3.08.39-4.63s.26-3.23.39-4.85C99.68,18.92,99.75,18.8,99.62,18.7ZM91.7,25.49v0Z"/><path d="M99.62,18.7c-.71,0-1.42,0-2.12,0l-5.81,0a0,0,0,0,0,0-.05l-.5,0H84.08c-.22,0-.41,0-.37.33.1.91.17,1.81.23,2.72,0,.25.12.33.35.32h1.53l5.87,0h3.82c.17,0,.34,0,.51,0h0c.22,0,.17.22.16.39C96.1,23.26,96,24.12,96,25c0,.37-.09.51-.48.5-1.26,0-2.52,0-3.78,0v0c-1.16,0-2.32,0-3.48,0-.24,0-.35,0-.31.34.1.87.16,1.75.21,2.62,0,.33.11.43.43.42,1,0,2.09,0,3.14,0h3.92c-.11,1.36-.23,2.71-.33,4.07,0,.24-.14.28-.32.33l-3.18.91-.09,0c-1.16-.22-2.27-.64-3.41-.91-.17,0-.16-.19-.17-.33,0-.66-.13-1.33-.16-2,0-.33-.13-.43-.44-.42-.81,0-1.62,0-2.43,0-.35,0-.39.13-.36.44.14,1.5.28,3,.4,4.5a.4.4,0,0,0,.35.44c2,.59,4.09,1.2,6.14,1.8l.09,0h.17L98,35.86a.38.38,0,0,0,.3-.41c0-.49.08-1,.12-1.47.16-1.82.32-3.65.47-5.47.13-1.54.27-3.08.39-4.63s.26-3.23.39-4.85C99.68,18.92,99.75,18.8,99.62,18.7ZM91.7,25.49v0Z"/><path d="M451.38,43.91a20.54,20.54,0,0,1-2.19-.53c-.7-.24-1.36-.61-2-.92a.64.64,0,0,1-.36-.59c-.13-2-.26-4-.41-6a1.15,1.15,0,0,0-.17-.5c-.31-.56-.65-1.11-1-1.74a16.38,16.38,0,0,0,6.47,1.08,18.27,18.27,0,0,0,6.54-.94c-.22.38-.39.73-.6,1a2.93,2.93,0,0,0-.5,1.68c-.08,1.72-.18,3.44-.25,5.17a1,1,0,0,1-.51.93A8.05,8.05,0,0,1,453,43.82a1.58,1.58,0,0,0-.31.09Z"/><path d="M442.87,10.79a5.65,5.65,0,0,1,2.44-.65,49.3,49.3,0,0,1,7.29-.33c.28,0,.41-.08.48-.39q.41-1.77.87-3.51a2.44,2.44,0,0,1,.46-.89c1.41-1.58,2.84-3.15,4.26-4.72a3,3,0,0,0,.19-.3h.08l1.14,1L459,2.27c-1,1.13-2,2.26-2.92,3.41a2.43,2.43,0,0,0-.41.78c-.31,1.09-.6,2.19-.92,3.34l.54.07,4.69.51a1.26,1.26,0,0,1,.38.1c.2.11.39.25.58.37a2.08,2.08,0,0,1-.54.42,13.51,13.51,0,0,1-1.76.49,37.92,37.92,0,0,1-9.92.45,22.59,22.59,0,0,1-4.7-.76,8,8,0,0,1-1.12-.5Zm10.65.79c.32-.08.63-.14.93-.24.07,0,.11-.15.17-.23-.09,0-.19,0-.26,0a1.94,1.94,0,0,1-1.65,0,.85.85,0,0,0-.23,0c0,.09.06.22.12.24C452.9,11.42,453.21,11.49,453.52,11.58Z"/><path d="M443.84,22.29l-.92-10.14a34.31,34.31,0,0,0,18,0c-.06.58-.12,1.21-.19,1.83-.2,1.84-.41,3.68-.61,5.52-.13,1.24-.26,2.48-.4,3.73a.41.41,0,0,1-.13.24c-.5.45-1,.9-1.53,1.33-.1.09-.26.09-.4.14l-.06-.12a10,10,0,0,0,.64-.82,13.66,13.66,0,0,0,.78-1.25.62.62,0,0,0-.07-.81,1.07,1.07,0,0,0-.81-.26,8,8,0,0,0-1.35.73.29.29,0,0,0,0-.18c0-.13-.1-.33-.19-.35a.44.44,0,0,0-.41.13,3,3,0,0,0-.37.82,1.7,1.7,0,0,1-.57.92c-.34.29-.67.59-1,.86a1.67,1.67,0,0,1-.45.2l-.11-.07a6,6,0,0,1,.17-.73c.6-1.56,1.21-3.11,1.82-4.67a1,1,0,0,0,.13-.38c0-.2-.06-.49-.17-.55s-.39.05-.55.15-.14.26-.19.4c-.67,1.77-1.33,3.55-2,5.32a1.15,1.15,0,0,1-.85.59c-.27,0-.25-.2-.19-.39.2-.63.42-1.25.63-1.88a1.63,1.63,0,0,0,.13-.56.51.51,0,0,0-.24-.37.45.45,0,0,0-.39.15,6.22,6.22,0,0,0-.29.64c-.35.64-.69,1.3-1.09,1.92-.17.26-.5.53-.8.33-.12-.07-.08-.56,0-.81a16,16,0,0,1,.68-1.6c.1-.23.17-.46-.1-.61a.41.41,0,0,0-.61.2c-.38,1-.77,2-1.07,3.08-.14.47.25.83.75.84s1-.23,1.64-1c.08.41,0,1,.57.94a4.61,4.61,0,0,0,1.12-.41c.37.5.67.58,1.26.26.33-.17.62-.41,1-.66-.25.57-.48,1.08-.7,1.59a9.7,9.7,0,0,0-.47,1.23.71.71,0,0,0,.15.61c.24.2.49,0,.64-.22a2.75,2.75,0,0,0,.24-.52c.42-1.06.79-2.15,1.28-3.18a7.76,7.76,0,0,1,1.11-1.56.71.71,0,0,1,.88-.24,3.43,3.43,0,0,1-.23.47c-.35.49-.73,1-1.07,1.46a.79.79,0,0,0-.16.88.66.66,0,0,0,.81.3,6.07,6.07,0,0,0,1.21-.57,7.05,7.05,0,0,0,.83-.72c-.07.65-.13,1.23-.19,1.81-.2,1.83-.42,3.67-.6,5.51a1.54,1.54,0,0,1-1.13,1.51,16.49,16.49,0,0,1-4.46.71,23.35,23.35,0,0,1-6.13-.43,12,12,0,0,1-1.51-.48,1.28,1.28,0,0,1-.83-1.24c-.16-1.91-.34-3.82-.52-5.73,0-.11,0-.22,0-.37,1.2.37,1.86-.54,2.69-1.25-.14.51-.27.94-.38,1.37a4.61,4.61,0,0,0-.11.82.4.4,0,0,0,.2.31.39.39,0,0,0,.34-.13,1.82,1.82,0,0,0,.27-.54c.41-1.31.81-2.62,1.19-3.94a3.58,3.58,0,0,0,.16-1c0-.15-.15-.42-.25-.43a.58.58,0,0,0-.47.24,6.32,6.32,0,0,0-.35,1,4.73,4.73,0,0,1-1.95,2.44c-.49.33-.85.12-.85-.48a5.46,5.46,0,0,1,.15-1.4,8.54,8.54,0,0,1,1.77-3.5,2.84,2.84,0,0,1,.54-.5c.54-.39.95-.29,1.29.3,0,.06.06.13.1.18s.24.49.55.35.33-.45.25-.75a1.75,1.75,0,0,0-1.88-1.2,3.31,3.31,0,0,0-1.74,1.18,9.27,9.27,0,0,0-1.7,3C444,22,443.91,22.09,443.84,22.29Z"/><rect class="cls-1" x="53.34" y="17.56" width="1.05" height="18.3" rx="0.53" ry="0.53"/><rect class="cls-1" x="125.71" y="17.56" width="1.05" height="18.3" rx="0.53" ry="0.53"/><rect class="cls-1" x="198.08" y="17.56" width="1.05" height="18.3" rx="0.53" ry="0.53"/><rect class="cls-1" x="270.44" y="17.56" width="1.05" height="18.3" rx="0.53" ry="0.53"/><rect class="cls-1" x="342.81" y="17.56" width="1.05" height="18.3" rx="0.53" ry="0.53"/><rect class="cls-1" x="487.55" y="17.56" width="1.05" height="18.3" rx="0.53" ry="0.53"/><rect class="cls-1" x="415.18" y="17.56" width="1.05" height="18.3" rx="0.53" ry="0.53"/></svg>