<svg id="Capa_1" data-name="Capa 1" xmlns="http://www.w3.org/2000/svg" viewBox="0 0 233.16 18.89"><defs><style>.cls-1{fill:#99023a;}</style></defs><title>herramientas</title><ellipse class="cls-1" cx="1.33" cy="14.49" rx="1.33" ry="1.35"/><polygon class="cls-1" points="12.99 18.89 0.87 18.89 0.87 4.47 15.22 4.47 15.22 16.83 14.37 16.83 14.37 5.33 1.71 5.33 1.71 18.04 12.99 18.04 12.99 18.89"/><path class="cls-1" d="M11.5,11.21c0,.47-.06.9-.1,1.33q-.12,1.38-.27,2.76a.42.42,0,0,1-.23.29c-.81.25-1.63.47-2.44.69a.73.73,0,0,1-.36,0c-.81-.22-1.61-.46-2.42-.67a.33.33,0,0,1-.28-.35c-.05-.63-.12-1.26-.18-1.92H6.63c0,.28.07.56.08.84A.29.29,0,0,0,7,14.5c.35.08.69.2,1,.27a1.19,1.19,0,0,0,.46,0,2.74,2.74,0,0,0,.39-.09c.93-.25.93-.25,1-1.21,0-.26,0-.52.06-.83H5.46c-.17,0-.3,0-.32-.23C5,11.19,4.92,10,4.81,8.76c0-.11,0-.22,0-.36h7c0,.43-.07.85-.13,1.26,0,.08-.22.16-.34.17H6.34l.12,1.39Z"/><path class="cls-1" d="M93.49,18.89a1.09,1.09,0,0,0-.25,0,.92.92,0,0,1-.71-.57,1.71,1.71,0,0,1,0-1.26,2.36,2.36,0,0,1,.77-1.12,9.49,9.49,0,0,1,2-1.32.46.46,0,0,0,.15-.09,4.39,4.39,0,0,0-.53-.41c-.51-.37-1-.71-1.52-1.11a5.26,5.26,0,0,1-1.11-1.15,2.94,2.94,0,0,1-.38-.75,1.82,1.82,0,0,1,0-1.13,4.38,4.38,0,0,1,.8-1.39,8.72,8.72,0,0,1,2.13-1.84A14,14,0,0,1,98,5.25,6.7,6.7,0,0,1,99.9,4.9a5,5,0,0,1,1.93.25,2.7,2.7,0,0,1,1.1.66,1.87,1.87,0,0,1,.5,1.09A3.17,3.17,0,0,1,102.85,9a4.76,4.76,0,0,1-2.68,2,6.35,6.35,0,0,1-2.2.32,2.39,2.39,0,0,1-1.5-.51,1.2,1.2,0,0,1-.4-.54s0,0,0,0,0-.14,0-.18.12,0,.16.06a1.77,1.77,0,0,0,1.23.56,5,5,0,0,0,2.38-.45A5,5,0,0,0,101.69,9a3,3,0,0,0,.7-1.25,1.56,1.56,0,0,0,0-.68,1,1,0,0,0-.51-.67,2.48,2.48,0,0,0-1-.3,6.16,6.16,0,0,0-2.79.37,11.65,11.65,0,0,0-3.53,2,4.16,4.16,0,0,0-1.15,1.32,2.18,2.18,0,0,0-.27,1.12,1.87,1.87,0,0,0,.39,1,5.13,5.13,0,0,0,1,.94c.42.34.87.66,1.27,1l.22.21s.06,0,.1,0l1.48-.81a1.83,1.83,0,0,0,.5-.42,2.66,2.66,0,0,1,1.05-.79,1,1,0,0,1,.38-.08.55.55,0,0,1,.59.48,1.78,1.78,0,0,1,0,.61.21.21,0,0,0,0,.08c.06,0,.1-.08.16-.09a.53.53,0,0,1,.37.1.23.23,0,0,1,.07.22c-.06.29-.15.57-.22.85s-.18.71-.24,1.07a1.25,1.25,0,0,0,0,.51c.06,0,.07-.07.1-.11q.27-.51.51-1c.37-.84.74-1.67,1.1-2.52a3.92,3.92,0,0,0,.18-.61.19.19,0,0,1,.15-.16,1.55,1.55,0,0,1,.8-.06.28.28,0,0,1,.12,0,.16.16,0,0,1,.08.21,3.41,3.41,0,0,0-.2.76,2,2,0,0,0,.19,1.13l.1.2.2-.34a16.4,16.4,0,0,0,.84-1.61,3.82,3.82,0,0,0,.19-.66.32.32,0,0,1,.28-.26,1.88,1.88,0,0,1,.67,0l.13,0c.11.05.13.11.09.22a3.1,3.1,0,0,0-.19.74,2,2,0,0,0,.19,1.16c.06.12.13.24.18.36s0,.05.1,0a3.85,3.85,0,0,1,1.7-.36,2.79,2.79,0,0,1,1.73.57,1.9,1.9,0,0,1,.75,1.31v.28a1.25,1.25,0,0,1-.76,1,.41.41,0,0,1-.19.05s-.07,0-.08-.06a.07.07,0,0,1,0-.09l.16-.11a1,1,0,0,0,.32-1.31,1.7,1.7,0,0,0-1-.83,3.8,3.8,0,0,0-1.64-.19,3.19,3.19,0,0,0-.81.19c-.07,0-.08.06,0,.12a1.66,1.66,0,0,1,.06.21,1.19,1.19,0,0,1-.18,1.11,2.37,2.37,0,0,1-1.38.85.42.42,0,0,1-.55-.41,1.26,1.26,0,0,1,.16-.71,3.5,3.5,0,0,1,.84-1.07c.06,0,.07-.08,0-.15a4,4,0,0,1-.33-.83c0-.18-.09-.36-.13-.55l0,0a14.13,14.13,0,0,1-1,1.81s0,.06,0,.1a2.16,2.16,0,0,1,.14.43,1.32,1.32,0,0,1-.24,1.24,2.16,2.16,0,0,1-1.78.72c-.32,0-.43-.27-.25-.54a1.7,1.7,0,0,1,.15-.22c.35-.45.75-.86,1.07-1.34a.15.15,0,0,0,0-.17,4,4,0,0,1-.41-1l-.12-.49,0,0a26.61,26.61,0,0,1-1.6,3.37,1.63,1.63,0,0,1-.47.54.42.42,0,0,1-.43.06.48.48,0,0,1-.26-.3,2.14,2.14,0,0,1-.08-.87c0-.06,0-.12,0-.19-.12.22-.21.43-.31.64a4.15,4.15,0,0,1-.4.75.66.66,0,0,1-1.06,0,2.72,2.72,0,0,1-.45-1.49,4.2,4.2,0,0,1,.1-.93c0-.16.08-.32.14-.49l-.12.06-.75.44s-.12.05-.15.1,0,.11.06.16a3,3,0,0,1,.08,1.72,3,3,0,0,1-2.22,2.33l-.36.07ZM96,15.55a3.17,3.17,0,0,0-.07-.61s0-.06-.09,0a11.14,11.14,0,0,0-1.23.84,2.79,2.79,0,0,0-.77.8,1.46,1.46,0,0,0-.25.91.38.38,0,0,0,.36.37,1.16,1.16,0,0,0,.45,0A2.4,2.4,0,0,0,96,15.55Zm2.23-.23a1.71,1.71,0,0,0,.1.6c.06.16.15.17.26,0a1.51,1.51,0,0,0,.2-.35,17.69,17.69,0,0,0,.83-2.24,3.43,3.43,0,0,0,.11-.46c0-.16-.05-.23-.21-.18l-.14,0a1.26,1.26,0,0,0-.39.34A3.69,3.69,0,0,0,98.18,15.32Zm7.44-.87a1,1,0,0,0,0-.22c0-.06,0-.08-.07,0a2.42,2.42,0,0,0-.66,1.08.45.45,0,0,0,0,.11s0,.08.08,0A1,1,0,0,0,105.62,14.45Zm-2.5.53c-.11.15-.21.27-.31.39s-.37.43-.56.64c0,0,0,0,0,.07s0,0,.07,0l.11,0a1.82,1.82,0,0,0,.49-.42A1,1,0,0,0,103.12,15Zm-3.67.52h0Z"/><path class="cls-1" d="M167,9l-.71.42-1.9,1.1-1.05.62a.11.11,0,0,1-.13,0l-2.59-1.51-1-.59-.06,0s.06,0,.09-.07c.74-.4,1.47-.81,2.2-1.22.44-.24.88-.48,1.31-.73a.21.21,0,0,1,.26,0l2.48,1.37L167,8.9S167,8.92,167,9Z"/><path class="cls-1" d="M163.59,11.59l1.3-.77,2.16-1.26.21-.12s0,0,.05,0,0,.05,0,.07v3.92s0,.05,0,.07-.28.16-.41.24l-1.9,1-1.39.78s0-.05,0-.08Z"/><path class="cls-1" d="M163.05,15.55c0,.06-.07,0-.09,0l-.66-.37-2.92-1.62,0,0v-4s0-.05,0-.06l2.48,1.44,1.11.64s.09,0,.12.09a.15.15,0,0,0,0,.07v3.8A.15.15,0,0,0,163.05,15.55Z"/><path class="cls-1" d="M170.06,15.06l-.95-.55-1.2-.7s-.07-.05-.07-.11,0-.12,0-.18V9.21a.16.16,0,0,1,.08-.15L170,7.84c.05,0,.07,0,.06,0v7.18Z"/><path class="cls-1" d="M156.57,7.81l1,.56,1.18.69c.07,0,.08.07.08.14v4.48a.13.13,0,0,1-.06.13L156.63,15l-.06,0Z"/><path class="cls-1" d="M163.6,3.8l.07,0,1.65,1c.57.32,1.14.64,1.7,1L169.24,7l.48.27s.06,0,.06,0,0,0-.05,0l-2,1.18a.19.19,0,0,1-.23,0c-.79-.45-1.59-.89-2.39-1.33l-1.45-.81a.1.1,0,0,1-.07-.11V3.88S163.56,3.82,163.6,3.8Z"/><path class="cls-1" d="M156.83,7.34l.68-.39,2.1-1.2,1.82-1L163,3.84s0,0,.07,0,0,0,0,.08V6.32a.11.11,0,0,1-.07.12L160,8.08l-.92.51s-.08,0-.13,0l-2.12-1.24Z"/><path class="cls-1" d="M169.64,15.44l-.5.29-2.39,1.36L164.8,18.2l-1.15.66c-.06,0-.08,0-.08,0V16.27c0-.05,0-.07.06-.1l2.91-1.61.75-.42a.11.11,0,0,1,.13,0l2.15,1.25Z"/><path class="cls-1" d="M163,18.89,157,15.44l.61-.36,1.58-.92a.16.16,0,0,1,.19,0c.8.45,1.6.9,2.41,1.34l1.18.66a.14.14,0,0,1,.09.16v2.48A.18.18,0,0,1,163,18.89Z"/><path class="cls-1" d="M222.87,6l1.58,1.62a.33.33,0,0,1,.05.24A1.24,1.24,0,0,0,225,9.19a.39.39,0,0,1,.15.26c0,1.26,0,2.53,0,3.79a.48.48,0,0,1-.2.31,1.19,1.19,0,0,0-.45,1.32,1.17,1.17,0,0,0,1.14.83,1.14,1.14,0,0,0,1.07-.78,1.16,1.16,0,0,0-.37-1.32.44.44,0,0,1-.2-.4c0-1.17,0-2.34,0-3.52a1.93,1.93,0,0,1,0-.24l.08-.07c.12.15.23.31.36.45.3.31.6.61.91.91a.35.35,0,0,1,.11.36,1.17,1.17,0,1,0,1.25-.93s-.09,0-.13,0c-.32.12-.51-.07-.71-.28-.37-.4-.77-.78-1.15-1.18a.54.54,0,0,1-.11-.35A1.19,1.19,0,0,0,225.44,7a.35.35,0,0,1-.3-.08l-1.45-1.45c-.12-.13-.11-.2,0-.31L224.82,4a1,1,0,0,1,1.54,0l4.29,4.33,2.1,2.13a1,1,0,0,1,0,1.61l-6.35,6.4a1,1,0,0,1-1.57,0l-6.36-6.42a1,1,0,0,1,0-1.64l4.17-4.21A2.54,2.54,0,0,1,222.87,6Z"/><path class="cls-1" d="M135.76,3.8l.26.06a1.39,1.39,0,0,1,.87.68,2.77,2.77,0,0,1,.37,1.09,4.8,4.8,0,0,1,.05,1.07,8.9,8.9,0,0,1-.2,1.54,1.74,1.74,0,0,1-.05.22.06.06,0,0,0,.05.08,8.78,8.78,0,0,1,1.69.68,4.67,4.67,0,0,1,1.22.89,1.92,1.92,0,0,1,.54,1,1.44,1.44,0,0,1-.19.95,3.19,3.19,0,0,1-1,1,7.35,7.35,0,0,1-1.72.88,5.22,5.22,0,0,1-.56.18s-.06,0,0,.09a8.72,8.72,0,0,1,.21,1.26,7.14,7.14,0,0,1,0,.8,4.5,4.5,0,0,1-.22,1.36,1.84,1.84,0,0,1-.67,1,1.35,1.35,0,0,1-.65.24,2.57,2.57,0,0,1-1.36-.25,6.56,6.56,0,0,1-1.55-1q-.33-.27-.63-.57c-.05,0-.07-.05-.12,0a8,8,0,0,1-1.87,1.37,4,4,0,0,1-1.15.39,1.73,1.73,0,0,1-1.2-.19,1.59,1.59,0,0,1-.62-.76,3.42,3.42,0,0,1-.27-1.09,6.58,6.58,0,0,1,0-1.47,9.23,9.23,0,0,1,.19-1c0-.06,0-.08,0-.1a7.75,7.75,0,0,1-2.15-1,3.35,3.35,0,0,1-1-1,1.49,1.49,0,0,1-.28-.94,1.61,1.61,0,0,1,.32-.89,3.68,3.68,0,0,1,1.14-1,8.09,8.09,0,0,1,2-.84c.06,0,.08,0,.06-.1-.08-.35-.15-.69-.2-1s0-.46-.06-.7a5.45,5.45,0,0,1,0-.7,3,3,0,0,1,.5-1.59,1.4,1.4,0,0,1,1-.57,2.63,2.63,0,0,1,1.3.24,6.24,6.24,0,0,1,1.67,1,7.84,7.84,0,0,1,.61.54s.07,0,.11,0a8.25,8.25,0,0,1,1.62-1.27,4.29,4.29,0,0,1,1.34-.52.78.78,0,0,0,.21,0Zm-4.54,11s0,0,0,0c.28.36.57.72.88,1.06.11.13.11.13.22,0,.3-.34.58-.7.85-1.07,0,0,0,0,0,0C132.52,14.8,131.87,14.81,131.22,14.79Zm-.11-6.14c-.13,0-.23,0-.34,0a.25.25,0,0,0-.21.12,24.7,24.7,0,0,0-1.42,2.5.15.15,0,0,0,0,.13A22.25,22.25,0,0,0,130.61,14a.19.19,0,0,0,.13.07l.72,0c.72,0,1.43,0,2.14,0a.19.19,0,0,0,.17-.1,22.71,22.71,0,0,0,1.44-2.54.13.13,0,0,0,0-.12,22.65,22.65,0,0,0-1.45-2.53.16.16,0,0,0-.15-.08l-.94-.05C132.14,8.62,131.61,8.61,131.11,8.65Zm-6.62,2.65s0,.07,0,.1a1.59,1.59,0,0,0,.61.94,6.49,6.49,0,0,0,2.3,1.16c.07,0,.09,0,.11-.05a16,16,0,0,1,.77-2,.14.14,0,0,0,0-.14c-.12-.25-.22-.51-.33-.76-.16-.41-.31-.83-.44-1.25,0,0,0-.06-.07,0a7.86,7.86,0,0,0-1.86.8,3,3,0,0,0-.88.75A1,1,0,0,0,124.49,11.3Zm4.37,6.86.27,0,.28-.08a8.52,8.52,0,0,0,1-.47,7.42,7.42,0,0,0,1.29-1s0-.05,0-.08l-.16-.18c-.43-.49-.83-1-1.21-1.53,0,0,0,0-.09,0l-.74-.08c-.43-.05-.86-.13-1.28-.21-.06,0-.13-.06-.18,0s0,.11,0,.16a7.89,7.89,0,0,0-.21,1.6,3.84,3.84,0,0,0,0,.76,2.22,2.22,0,0,0,.23.77.71.71,0,0,0,.4.38A1.15,1.15,0,0,0,128.86,18.16Zm7.77-2.05c0-.09,0-.18,0-.27a8.19,8.19,0,0,0-.21-1.39c0-.06,0-.08-.1-.07a14,14,0,0,1-2.14.33.15.15,0,0,0-.09.06l-.3.42a15.73,15.73,0,0,1-1,1.29s0,.06,0,.1.31.29.47.42a5.87,5.87,0,0,0,1.53,1,2.2,2.2,0,0,0,.87.19.7.7,0,0,0,.42-.13,1.4,1.4,0,0,0,.46-.75A5.91,5.91,0,0,0,136.63,16.11Zm-8.88-9.72a4.71,4.71,0,0,0,0,.75,10.87,10.87,0,0,0,.2,1.14s0,.05.07,0c.21,0,.42-.09.63-.12a11.87,11.87,0,0,1,1.44-.2.22.22,0,0,0,.18-.1c.24-.36.51-.7.78-1s.37-.43.55-.64c0,0,0,0,0-.07a7.81,7.81,0,0,0-1.24-1,3.63,3.63,0,0,0-1.54-.62.77.77,0,0,0-.81.36,1.42,1.42,0,0,0-.17.4A3.27,3.27,0,0,0,127.75,6.39Zm8.85.06a4.36,4.36,0,0,0,0-.51,2.64,2.64,0,0,0-.21-.88.8.8,0,0,0-.89-.53,2.55,2.55,0,0,0-.9.28,7.13,7.13,0,0,0-1.79,1.3c-.09.09-.09.09,0,.18a15.38,15.38,0,0,1,1.29,1.63.2.2,0,0,0,.14.08,4.23,4.23,0,0,1,.5.05c.53.07,1.06.16,1.59.28.05,0,.07,0,.08-.05A8.12,8.12,0,0,0,136.6,6.45Zm3.26,4.89a.9.9,0,0,0-.17-.49,2.79,2.79,0,0,0-.7-.67,7.39,7.39,0,0,0-2.06-.94c-.07,0-.08,0-.1.06a15.31,15.31,0,0,1-.77,2,.13.13,0,0,0,0,.12,15.73,15.73,0,0,1,.8,2c0,.08,0,.08.12.06a7.68,7.68,0,0,0,1.64-.71,3.55,3.55,0,0,0,1-.79A1.08,1.08,0,0,0,139.86,11.34Zm-5.23,2.59a.66.66,0,0,0,.15,0c.45-.06.9-.14,1.35-.23.05,0,.06,0,0-.08-.13-.4-.27-.79-.43-1.17l-.11-.26C135.32,12.78,135,13.36,134.63,13.93Zm-5.89-1.72,0,0c-.19.46-.36.93-.51,1.4,0,0,0,.06,0,.06.43.09.86.16,1.29.22a.44.44,0,0,0,.2,0C129.37,13.38,129.05,12.81,128.74,12.21Zm4.42-4.3s0,0,0,0c-.29-.38-.6-.75-.92-1.12,0,0-.06,0-.09,0-.29.31-.56.64-.82,1l-.12.16C131.86,7.89,132.5,7.89,133.16,7.91Zm1.47.86c.36.57.68,1.14,1,1.72l0,0c.19-.45.35-.91.5-1.38,0-.05,0-.06,0-.06l-.6-.13Zm-4.91,0h-.13c-.44.06-.87.14-1.3.23-.09,0-.09,0-.06.11.14.44.29.87.47,1.29,0,0,0,.06,0,.08C129,9.9,129.37,9.34,129.72,8.77Z"/><path class="cls-1" d="M132.17,12.85a1.52,1.52,0,0,1,0-3,1.52,1.52,0,0,1,0,3Z"/><path class="cls-1" d="M74.18,11a2.27,2.27,0,0,0-.27-.33.77.77,0,0,0-.86-.2.57.57,0,0,0-.22.94,2.39,2.39,0,0,0,.47.31l1.09.5a2.45,2.45,0,0,1,.72.52,1.85,1.85,0,0,1,.51,1.45,1.78,1.78,0,0,1-.46,1.16,1.94,1.94,0,0,1-1,.56,3.07,3.07,0,0,1-2.31-.33,2.32,2.32,0,0,1-.84-.89l0-.06v0L72,13.94l.24.31a1.39,1.39,0,0,0,1.64.39A.6.6,0,0,0,74,13.59a4.68,4.68,0,0,0-.7-.37,7.86,7.86,0,0,1-1.12-.57,1.88,1.88,0,0,1-.82-1.26,1.77,1.77,0,0,1,1.46-2.13,2.46,2.46,0,0,1,1.51.15,2,2,0,0,1,.91.9Z"/><path class="cls-1" d="M70.21,9.28a.49.49,0,0,1,0,.11c0,1.56,0,3.12,0,4.68a1.86,1.86,0,0,1-.62,1.48,1.83,1.83,0,0,1-1,.4,2.56,2.56,0,0,1-1.26-.1,2,2,0,0,1-1.15-1s-.06-.09,0-.12l1-.65.17.28a.86.86,0,0,0,.5.4,1.1,1.1,0,0,0,.51,0,.6.6,0,0,0,.38-.55,2.62,2.62,0,0,0,0-.28V9.48a.53.53,0,0,1,0-.13.09.09,0,0,1,.06-.07Z"/><ellipse class="cls-1" cx="63.62" cy="14.49" rx="1.33" ry="1.35"/><polygon class="cls-1" points="75.27 18.89 63.15 18.89 63.15 4.47 77.5 4.47 77.5 16.83 76.66 16.83 76.66 5.33 64 5.33 64 18.04 75.27 18.04 75.27 18.89"/><ellipse class="cls-1" cx="32.47" cy="14.49" rx="1.33" ry="1.35"/><polygon class="cls-1" points="44.13 18.89 32.01 18.89 32.01 4.47 46.36 4.47 46.36 16.83 45.51 16.83 45.51 5.33 32.85 5.33 32.85 18.04 44.13 18.04 44.13 18.89"/><path class="cls-1" d="M42.87,8.46H39.46v0H36.18c-.09,0-.18,0-.16.14,0,.37.08.74.1,1.12,0,.1.05.14.15.13H41.1l.22,0h0c.1,0,.07.09.07.16,0,.36-.08.71-.09,1.07,0,.15,0,.21-.21.2H39.46v0H38c-.1,0-.15,0-.13.14q.06.54.09,1.08c0,.14,0,.18.18.18h3c0,.57-.09,1.13-.14,1.69,0,.1-.06.11-.14.14l-1.37.37h0c-.49-.09-1-.26-1.46-.38-.07,0-.07-.08-.07-.13,0-.28-.06-.55-.07-.83s-.06-.18-.19-.17h-1c-.15,0-.16.05-.15.18.06.62.12,1.24.17,1.86a.17.17,0,0,0,.15.18l2.64.74h.11l2.63-.74a.14.14,0,0,0,.12-.16c0-.21,0-.41,0-.61l.21-2.26c.05-.64.11-1.28.17-1.92s.11-1.33.16-2C42.9,8.55,42.93,8.5,42.87,8.46Zm-3.41,2.81v0Z"/><path class="cls-1" d="M42.87,8.46H39.46v0H36.18c-.09,0-.18,0-.16.14,0,.37.08.74.1,1.12,0,.1.05.14.15.13H41.1l.22,0h0c.1,0,.07.09.07.16,0,.36-.08.71-.09,1.07,0,.15,0,.21-.21.2H39.46v0H38c-.1,0-.15,0-.13.14q.06.54.09,1.08c0,.14,0,.18.18.18h3c0,.57-.09,1.13-.14,1.69,0,.1-.06.11-.14.14l-1.37.37h0c-.49-.09-1-.26-1.46-.38-.07,0-.07-.08-.07-.13,0-.28-.06-.55-.07-.83s-.06-.18-.19-.17h-1c-.15,0-.16.05-.15.18.06.62.12,1.24.17,1.86a.17.17,0,0,0,.15.18l2.64.74h.11l2.63-.74a.14.14,0,0,0,.12-.16c0-.21,0-.41,0-.61l.21-2.26c.05-.64.11-1.28.17-1.92s.11-1.33.16-2C42.9,8.55,42.93,8.5,42.87,8.46Zm-3.41,2.81v0Z"/><path class="cls-1" d="M194.24,18.89c-.32-.07-.64-.11-1-.21s-.58-.26-.87-.39a.25.25,0,0,1-.16-.24c0-.83-.11-1.65-.17-2.48a.68.68,0,0,0-.07-.2c-.14-.23-.29-.46-.44-.72a7.41,7.41,0,0,0,2.78.45,8.24,8.24,0,0,0,2.81-.4,2.88,2.88,0,0,1-.26.43,1.22,1.22,0,0,0-.21.69c0,.71-.08,1.43-.11,2.14a.39.39,0,0,1-.22.38,3.62,3.62,0,0,1-1.45.52.5.5,0,0,0-.13,0Z"/><path class="cls-1" d="M190.58,4.46a2.55,2.55,0,0,1,1-.27,23.57,23.57,0,0,1,3.14-.14c.13,0,.18,0,.21-.16.12-.48.24-1,.38-1.44a.82.82,0,0,1,.19-.37l1.83-2a.54.54,0,0,0,.09-.12h0l.49.4-.47.54c-.42.47-.85.93-1.26,1.41a1,1,0,0,0-.18.32l-.39,1.38.23,0,2,.21.17,0,.25.16a1.13,1.13,0,0,1-.23.17,5,5,0,0,1-.76.2,17,17,0,0,1-4.27.19,11.47,11.47,0,0,1-2-.31,4.1,4.1,0,0,1-.48-.21Zm4.58.33.4-.1s.05-.06.07-.09a.22.22,0,0,0-.11,0,.88.88,0,0,1-.71,0h-.1s0,.09,0,.1Z"/><path class="cls-1" d="M191,9.54l-.39-4.2a15.38,15.38,0,0,0,7.74,0c0,.24-.05.5-.08.76-.09.76-.18,1.52-.26,2.28l-.18,1.54a.12.12,0,0,1,0,.1c-.22.19-.44.38-.66.55,0,0-.11,0-.17.06l0-.05c.09-.11.19-.22.28-.34a5.69,5.69,0,0,0,.33-.52.25.25,0,0,0,0-.33.49.49,0,0,0-.35-.11,3.23,3.23,0,0,0-.58.31.15.15,0,0,0,0-.08s0-.14-.09-.15a.21.21,0,0,0-.17.06,1.06,1.06,0,0,0-.16.34.66.66,0,0,1-.25.38l-.44.35a.66.66,0,0,1-.19.09l-.05,0a1.46,1.46,0,0,1,.07-.3l.78-1.93c0-.06.07-.11.06-.16s0-.2-.07-.23a.37.37,0,0,0-.24.06.38.38,0,0,0-.08.17c-.29.73-.57,1.46-.85,2.2a.49.49,0,0,1-.37.24c-.12,0-.11-.08-.09-.16l.28-.78a.59.59,0,0,0,0-.23s0-.14-.1-.15-.13,0-.17.06-.07.18-.12.26c-.15.27-.3.54-.47.8-.07.11-.22.22-.35.14s0-.23,0-.34.19-.44.29-.66.08-.19,0-.25a.17.17,0,0,0-.26.08c-.17.42-.34.84-.47,1.27-.05.2.11.35.33.35s.43-.1.71-.39c0,.16,0,.4.24.38a1.84,1.84,0,0,0,.48-.17c.16.21.29.24.54.11s.27-.17.43-.27c-.1.23-.2.44-.3.66a3.86,3.86,0,0,0-.2.51.29.29,0,0,0,.07.25c.1.08.2,0,.27-.09a2.14,2.14,0,0,0,.1-.22c.18-.44.34-.89.55-1.32a3.69,3.69,0,0,1,.48-.64.31.31,0,0,1,.38-.1,1.24,1.24,0,0,1-.1.2c-.15.2-.31.39-.46.6a.31.31,0,0,0-.07.36.28.28,0,0,0,.35.12,2,2,0,0,0,.52-.23,2.85,2.85,0,0,0,.36-.3c0,.27-.06.51-.08.75-.09.76-.18,1.52-.26,2.28a.65.65,0,0,1-.49.63,7.76,7.76,0,0,1-1.92.29,10.11,10.11,0,0,1-2.63-.18,4.88,4.88,0,0,1-.65-.2.52.52,0,0,1-.36-.51c-.07-.79-.15-1.58-.23-2.37a.81.81,0,0,0,0-.15c.52.15.8-.23,1.16-.52-.06.21-.12.39-.16.57a1.27,1.27,0,0,0,0,.34.17.17,0,0,0,.08.12.15.15,0,0,0,.15-.05,1,1,0,0,0,.12-.23l.51-1.62a1.41,1.41,0,0,0,.07-.41c0-.06-.07-.17-.11-.17a.22.22,0,0,0-.2.1,2.74,2.74,0,0,0-.15.4,1.94,1.94,0,0,1-.84,1c-.21.14-.37.05-.37-.2a2.17,2.17,0,0,1,.07-.57,3.43,3.43,0,0,1,.76-1.45,1.51,1.51,0,0,1,.23-.21.34.34,0,0,1,.56.12.2.2,0,0,0,0,.08c.06.08.1.2.23.15s.15-.19.12-.32a.76.76,0,0,0-.81-.49,1.36,1.36,0,0,0-.75.48,3.74,3.74,0,0,0-.74,1.26A.87.87,0,0,1,191,9.54Z"/><rect class="cls-1" x="22.95" y="6.03" width="0.45" height="7.57" rx="0.23" ry="0.23"/><rect class="cls-1" x="54.09" y="6.03" width="0.45" height="7.57" rx="0.23" ry="0.23"/><rect class="cls-1" x="85.24" y="6.03" width="0.45" height="7.57" rx="0.23" ry="0.23"/><rect class="cls-1" x="116.38" y="6.03" width="0.45" height="7.57" rx="0.23" ry="0.23"/><rect class="cls-1" x="147.52" y="6.03" width="0.45" height="7.57" rx="0.23" ry="0.23"/><rect class="cls-1" x="209.8" y="6.03" width="0.45" height="7.57" rx="0.23" ry="0.23"/><rect class="cls-1" x="178.66" y="6.03" width="0.45" height="7.57" rx="0.23" ry="0.23"/></svg>