<svg id="Capa_1" data-name="Capa 1" xmlns="http://www.w3.org/2000/svg" viewBox="0 0 20 20"><title>hora</title><path d="M10.66,20H9.24A1.17,1.17,0,0,0,9,19.92,10,10,0,1,1,19.74,7.86c.09.43.16.86.24,1.29v1.6c0,.1-.06.2-.07.3a9.92,9.92,0,0,1-7.34,8.57C11.94,19.79,11.3,19.87,10.66,20ZM10,18.79A8.8,8.8,0,1,0,1.21,10,8.81,8.81,0,0,0,10,18.79Z"/><path d="M9.39,7.15V4.4c0-.5.22-.76.6-.76s.6.27.6.77c0,1.7,0,3.4,0,5.1a1.05,1.05,0,0,0,.27.65c.87.91,1.76,1.79,2.65,2.69.39.39.43.71.12,1s-.63.17-1-.17c-1-1-2-1.95-2.94-2.95A1.31,1.31,0,0,1,9.41,10c0-.93,0-1.86,0-2.8Z"/></svg>