<svg id="Capa_1" data-name="Capa 1" xmlns="http://www.w3.org/2000/svg" xmlns:xlink="http://www.w3.org/1999/xlink" viewBox="0 0 87.98 102"><defs><style>.cls-1{fill:#ffba00;}.cls-2{fill:#ff9800;}.cls-3{clip-path:url(#clip-path);}.cls-4{clip-path:url(#clip-path-2);}</style><clipPath id="clip-path"><rect class="cls-1" x="-1018.44" y="-86.91" width="345" height="98.07" rx="4.63" ry="4.63"/></clipPath><clipPath id="clip-path-2"><rect class="cls-1" x="-1439.92" y="-86.91" width="345" height="98.07" rx="4.63" ry="4.63"/></clipPath></defs><title>icon-play</title><path class="cls-2" d="M83.9,43.81,12.69,1.2A8.39,8.39,0,0,0,0,8.4V93.61a8.38,8.38,0,0,0,12.69,7.19L83.9,58.2A8.38,8.38,0,0,0,83.9,43.81Z"/><rect class="cls-1" x="-1018.44" y="-86.91" width="345" height="98.07" rx="4.63" ry="4.63"/><g class="cls-3"><polygon class="cls-2" points="-382.03 243.54 -390.16 234.23 150.08 -384.65 158.21 -375.34 -382.03 243.54"/><polygon class="cls-2" points="-365.46 262.52 -373.59 253.21 166.65 -365.68 174.78 -356.36 -365.46 262.52"/><polygon class="cls-2" points="-348.9 281.5 -357.03 272.18 183.21 -346.7 191.34 -337.38 -348.9 281.5"/><polygon class="cls-2" points="-332.33 300.47 -340.46 291.16 199.78 -327.72 207.91 -318.41 -332.33 300.47"/><polygon class="cls-2" points="-315.77 319.45 -323.9 310.13 216.34 -308.75 224.47 -299.43 -315.77 319.45"/><polygon class="cls-2" points="-299.2 338.43 -307.33 329.11 232.91 -289.77 241.04 -280.46 -299.2 338.43"/><polygon class="cls-2" points="-282.64 357.4 -290.77 348.09 249.47 -270.79 257.61 -261.48 -282.64 357.4"/><polygon class="cls-2" points="-266.07 376.38 -274.2 367.06 266.04 -251.82 274.17 -242.5 -266.07 376.38"/><polygon class="cls-2" points="-249.51 395.35 -257.64 386.04 282.61 -232.84 290.74 -223.53 -249.51 395.35"/><polygon class="cls-2" points="-232.94 414.33 -241.07 405.02 299.17 -213.86 307.3 -204.55 -232.94 414.33"/><polygon class="cls-2" points="-216.38 433.31 -224.51 423.99 315.74 -194.89 323.87 -185.57 -216.38 433.31"/><polygon class="cls-2" points="-199.81 452.28 -207.94 442.97 332.3 -175.91 340.43 -166.6 -199.81 452.28"/><polygon class="cls-2" points="-183.25 471.26 -191.38 461.95 348.87 -156.93 357 -147.62 -183.25 471.26"/><polygon class="cls-2" points="-166.68 490.24 -174.81 480.92 365.43 -137.96 373.56 -128.64 -166.68 490.24"/><polygon class="cls-2" points="-6.5 347.91 -14.63 338.6 525.61 -280.28 533.74 -270.97 -6.5 347.91"/><polygon class="cls-2" points="10.06 366.89 1.93 357.58 542.17 -261.31 550.3 -251.99 10.06 366.89"/><polygon class="cls-2" points="26.63 385.87 18.5 376.55 558.74 -242.33 566.87 -233.01 26.63 385.87"/><polygon class="cls-2" points="43.19 404.84 35.06 395.53 575.3 -223.35 583.43 -214.04 43.19 404.84"/><polygon class="cls-2" points="59.76 423.82 51.63 414.5 591.87 -204.38 600 -195.06 59.76 423.82"/><polygon class="cls-2" points="76.32 442.8 68.19 433.48 608.44 -185.4 616.57 -176.09 76.32 442.8"/><polygon class="cls-2" points="92.89 461.77 84.76 452.46 625 -166.42 633.13 -157.11 92.89 461.77"/></g><rect class="cls-1" x="-1439.92" y="-86.91" width="345" height="98.07" rx="4.63" ry="4.63"/><g class="cls-4"><polygon class="cls-2" points="-427.98 347.91 -436.11 338.6 104.13 -280.28 112.26 -270.97 -427.98 347.91"/><polygon class="cls-2" points="-411.42 366.89 -419.55 357.58 120.7 -261.31 128.83 -251.99 -411.42 366.89"/><polygon class="cls-2" points="-394.85 385.87 -402.98 376.55 137.26 -242.33 145.39 -233.01 -394.85 385.87"/><polygon class="cls-2" points="-378.29 404.84 -386.42 395.53 153.83 -223.35 161.96 -214.04 -378.29 404.84"/><polygon class="cls-2" points="-361.72 423.82 -369.85 414.5 170.39 -204.38 178.52 -195.06 -361.72 423.82"/><polygon class="cls-2" points="-345.15 442.8 -353.29 433.48 186.96 -185.4 195.09 -176.09 -345.15 442.8"/><polygon class="cls-2" points="-328.59 461.77 -336.72 452.46 203.52 -166.42 211.65 -157.11 -328.59 461.77"/><polygon class="cls-2" points="-312.02 480.75 -320.15 471.44 220.09 -147.45 228.22 -138.13 -312.02 480.75"/><polygon class="cls-2" points="-295.46 499.73 -303.59 490.41 236.65 -128.47 244.78 -119.16 -295.46 499.73"/><polygon class="cls-2" points="-278.89 518.7 -287.02 509.39 253.22 -109.49 261.35 -100.18 -278.89 518.7"/><polygon class="cls-2" points="-262.33 537.68 -270.46 528.36 269.78 -90.52 277.91 -81.2 -262.33 537.68"/><polygon class="cls-2" points="-245.76 556.65 -253.89 547.34 286.35 -71.54 294.48 -62.23 -245.76 556.65"/><polygon class="cls-2" points="-229.2 575.63 -237.33 566.32 302.91 -52.56 311.04 -43.25 -229.2 575.63"/><polygon class="cls-2" points="-212.63 594.61 -220.76 585.29 319.48 -33.59 327.61 -24.27 -212.63 594.61"/></g></svg>