<svg xmlns="http://www.w3.org/2000/svg" viewBox="0 0 46.97 71.29"><defs/><defs><style>.cls-2,.cls-8,.cls-9{fill:none;stroke-miterlimit:10;stroke:#060606}.cls-2{stroke-width:.17px}.cls-3{fill:#060606}.cls-4{fill:#2a0d12}.cls-7{fill:#fff}.cls-8,.cls-9{stroke-width:.34px}.cls-9{stroke-dasharray:.87 .87}.cls-10{fill:#854a49}</style></defs><g id="Home"><path fill="none" stroke="#f8ca81" stroke-miterlimit="10" stroke-width="1.55" d="M43.46 51.8a17.84 17.84 0 00-1.64-5.66 13.33 13.33 0 00-3.1-3.63 4.35 4.35 0 00.42-2.12 10.76 10.76 0 00-.26-3.21 11 11 0 00-.73-2.18 5.68 5.68 0 001.18-1 4.6 4.6 0 001.1-1.8c.4-1.29.13-2.78-.59-3.26a1.7 1.7 0 00-.93-.27 6.69 6.69 0 00-.72.08l-.5.11c-.66.17-1.23.35-1.26.36l-1.28.46-.48.19v-.79-2.54a71.42 71.42 0 01.61-7.42v0c.28-2.52.61-5.06 1-7.56.08-.55.16-1.11.23-1.65a45 45 0 01.84-4.82A2.49 2.49 0 0037 2.92a2 2 0 00-1.22-.59L35 2.18c-.69-.12-1.28-.23-1.87-.29l-1.23-.12h-.24c-.52 0-1.5-.14-2.55-.19-1.43-.06-2.88-.11-4.31-.14v0h-2.96v0c-1.43 0-2.88.08-4.32.14s-2.69.19-4 .33c-1.06.11-2.14.25-3.2.4a1.42 1.42 0 00-1.06.64 1.39 1.39 0 00-.2.88l.19 1.3v0c.39 2.15.76 4.34 1.08 6.5.37 2.5.71 5 1 7.56v0a71.44 71.44 0 01.61 7.42v2.5h0v.82l-.48-.19-1.28-.46s-.59-.2-1.25-.36l-.5-.11a6.68 6.68 0 00-.72-.08 1.71 1.71 0 00-.93.27c-.72.48-1 2-.59 3.26a4.6 4.6 0 001.1 1.8 4.93 4.93 0 00.74.66 15.39 15.39 0 00-.65 5.13 19.29 19.29 0 00.24 2.52A14.07 14.07 0 004.76 46a16.75 16.75 0 00-1.12 3.29c-1 3.8-.36 8.22-.1 10.42A3.42 3.42 0 015.47 58 9 9 0 008 63.88a7.61 7.61 0 003 1.8c.15-.45-.38-.8-.23-1.26a15.9 15.9 0 003.14 1.49 19.11 19.11 0 004.16 1c.12-.49-.14-.94-.27-1.9a7.33 7.33 0 00-1.1-2.68 14.78 14.78 0 003.12 2.54 15.45 15.45 0 003.34 1.35A9 9 0 0026.78 65c.38-.2 1.93-1.26 2.25-1.47a11.18 11.18 0 00-.43 3.42 8.72 8.72 0 003.28-.55 19 19 0 002.64-1 13.92 13.92 0 001.29-.82 3.26 3.26 0 01-.23 1.2 8.71 8.71 0 002.42-1 6.12 6.12 0 002.05-2.4 11.33 11.33 0 001.25-4.08 8.16 8.16 0 011.76 1.21 7.47 7.47 0 00.65-3.47 26.32 26.32 0 00-.25-4.24zM13.9 30.13l.45.09h.21l.66.12h0l.62.1h.22l.44.07h.26l.4.05H25.63L26 31h2.94l.42-.05h.22l.49-.07h.15l.65-.1h0l.59-.1h.2l.43-.08h.24l.39-.08.26-.05.26-.05v1.52c-.36.16-.73.3-1.09.43-.72.26-1.26.4-1.78.53a26 26 0 01-2.75.55l-.84.11a24.23 24.23 0 01-3.62.22h-.64c-1 0-1.9-.11-2.83-.19l-.83-.11a26 26 0 01-2.75-.55c-.52-.13-1.06-.27-1.78-.53-.37-.13-.73-.28-1.09-.43v-1.56l.31.06zm-2.19-18.7c-.33-2.17-.71-4.37-1.09-6.53l-.18-1.2h0c1-.15 2.11-.29 3.16-.4 1.4-.15 2.68-.3 3.99-.3 1.65-.07 3.33-.12 5-.15H24c1.64 0 3.31.08 5 .15 1 0 2 .13 2.48.18h.25l1.27.11c.53.05 1.1.15 1.76.27l.88.16a.76.76 0 01.4.14c.06.06.17.28 0 1a46.06 46.06 0 00-.87 5c-.07.54-.15 1.09-.23 1.63-.38 2.52-.71 5.08-1 7.61a72.84 72.84 0 00-.62 7.55v2h0l-.27.06-.35.07-.27.05-.35.07-.28.05-.35.06L31 29l-.35.06h-.28l-.35.05H16.65l-.36-.05H16l-.38-.06h-.29l-.33-.1-.28-.05-.37-.07-.35-.05-.38-.08-.26-.05h-.06v-2a72.83 72.83 0 00-.6-7.6c-.28-2.49-.62-5-.99-7.57zM7.57 30.18h.08l.52.06.4.08c.61.15 1.15.33 1.15.33l.79.28v.29a1.55 1.55 0 000 .57v0a2.45 2.45 0 00.09.23 3.16 3.16 0 001.79 1.54 17.49 17.49 0 002.18.78c.75.23 1.13.35 1.55.46a25.11 25.11 0 002.6.53c1.18.18 2.06.23 2.65.26H25.22c.58 0 1.47-.08 2.65-.26a25.11 25.11 0 002.6-.53c.42-.11.79-.23 1.55-.46a17.45 17.45 0 002.18-.78A3.16 3.16 0 0036 32a2.45 2.45 0 00.09-.23v0a1.55 1.55 0 000-.57v-.29l.79-.28s.54-.18 1.16-.33l.4-.08.52-.06h.08a2.35 2.35 0 01.06 1.68 3.26 3.26 0 01-.79 1.26 6.44 6.44 0 01-1.84 1.29 21.8 21.8 0 01-2.83 1.31 22.78 22.78 0 01-2.72.83 26.6 26.6 0 01-4.79.64c-.92.06-1.86.09-2.8.09s-1.87 0-2.79-.09a26.6 26.6 0 01-4.79-.64 22.77 22.77 0 01-2.75-.8 21.8 21.8 0 01-2.83-1.31 6.44 6.44 0 01-1.84-1.29 3.26 3.26 0 01-.79-1.27 2.35 2.35 0 01.03-1.68z"/><rect width="1.5" height="1.5" x="13.05" y="68.33" class="cls-2" rx=".31" ry=".31" transform="rotate(-20.96 13.806 69.087)"/><rect width="1.5" height="1.5" x="30.39" y="64.27" class="cls-2" rx=".31" ry=".31" transform="rotate(-20.96 31.14 64.997)"/><path d="M14.57 69a6.49 6.49 0 011-.8 7.47 7.47 0 011.27-.63 9.55 9.55 0 013.79-.48c2.33.06 2.7.68 4.63.54a9.37 9.37 0 003.34-.92 9.51 9.51 0 001.91-1.25" class="cls-2"/><circle cx="16.77" cy="65.81" r=".67" class="cls-3" transform="matrix(.93 -.36 .36 .93 -22.43 10.35)"/><circle cx="29.67" cy="69.04" r=".67" class="cls-3" transform="rotate(-20.96 29.667 69.03)"/><circle cx="23.43" cy="67.49" r=".67" class="cls-3" transform="rotate(-20.96 23.412 67.481)"/><path d="M16.77 65.81L29.67 69" class="cls-2"/><path d="M4.39 60.71h1.74v1.74H4.39zM40.77 60.71h1.74v1.74h-1.74zM4.39 24.33h1.74v1.74H4.39zM40.77 24.33h1.74v1.74h-1.74z" class="cls-3"/><path d="M8.27 34.32a16.39 16.39 0 00-.75 5.51 19.29 19.29 0 00.24 2.52A14.07 14.07 0 004.91 46a16.75 16.75 0 00-1.12 3.29c-1 3.8-.36 8.22-.1 10.42A3.42 3.42 0 015.62 58a9 9 0 002.56 5.88 7.61 7.61 0 002.92 1.8c.15-.45-.38-.8-.23-1.26A15.9 15.9 0 0014 65.87a19.11 19.11 0 004.16 1c.12-.49-.14-.94-.27-1.9a7.33 7.33 0 00-1.1-2.68 14.78 14.78 0 003.12 2.54 15.45 15.45 0 003.34 1.35 9 9 0 003.65-1.22c.38-.2 1.93-1.26 2.25-1.47a11.18 11.18 0 00-.43 3.42 8.72 8.72 0 003.28-.57 19 19 0 002.64-1 13.92 13.92 0 001.36-.81 3.26 3.26 0 01-.23 1.2 8.71 8.71 0 002.42-1 6.12 6.12 0 002.05-2.4 11.33 11.33 0 001.25-4.08 8.16 8.16 0 011.76 1.21 7.47 7.47 0 00.61-3.46 26.32 26.32 0 00-.26-4.27A17.84 17.84 0 0042 46.1a13.33 13.33 0 00-3.1-3.63 4.35 4.35 0 00.42-2.12 10.76 10.76 0 00-.32-3.21 10.47 10.47 0 00-.78-2.25c-.88.29-2.1.66-3.73 1.27-2.05.77-2.25.92-3 1.19-1.39.48-2.16.48-8.16.55-3.69 0-4.29.06-5.45-.15a20.85 20.85 0 01-4-1.15c-1.45-.61-2.21-1.15-4.26-2a7.79 7.79 0 00-1.35-.28z" class="cls-4"/><path fill="#8b1640" d="M10.08 5q.58 3.17 1.08 6.52.58 3.9 1 7.59a71.85 71.85 0 01.61 7.49v2.53a47 47 0 0021.3 0v-2.56a71.85 71.85 0 01.61-7.49q.41-3.68 1-7.59c.33-2.18.55-4.39 1.08-6.52a1.89 1.89 0 00-.15-1.62 1.3 1.3 0 00-.75-.35c-1-.18-1.9-.36-2.69-.44l-1.22-.12c-.39 0-1.52-.15-2.76-.21-2-.09-3.68-.13-5-.15V2h-1.5c-1.31 0-3 .07-5 .15-1.28.07-2.61.18-4 .32q-1.65.17-3.19.4a.73.73 0 00-.55.32.69.69 0 00-.1.44z"/><path d="M23.61 31a48.9 48.9 0 01-11-1.25l-.55-.13v-.52-2.5a71.44 71.44 0 00-.61-7.42c-.28-2.51-.61-5.06-1-7.56-.32-2.16-.69-4.35-1.08-6.5l-.19-1.3a1.39 1.39 0 01.2-.88 1.42 1.42 0 011.06-.64c1.06-.15 2.14-.29 3.2-.4 1.33-.14 2.68-.25 4-.33s2.89-.11 4.32-.14h2.94c1.43 0 2.88.08 4.31.14 1.05 0 2 .14 2.55.19H32l1.23.12c.59.06 1.18.16 1.87.29l.86.15a2 2 0 011.22.59 2.49 2.49 0 01.31 2.25 45 45 0 00-.83 4.84c-.07.54-.15 1.1-.23 1.65-.37 2.5-.71 5-1 7.56a71.42 71.42 0 00-.61 7.42v3.1l-.55.13A46.5 46.5 0 0123.61 31zM13.5 28.54a46.52 46.52 0 0019.89 0v-2A72.84 72.84 0 0134 19c.28-2.53.62-5.09 1-7.61.08-.54.16-1.1.23-1.63a46.06 46.06 0 01.87-5c.18-.7.06-.92 0-1a.76.76 0 00-.4-.14l-.88-.16c-.66-.12-1.23-.22-1.76-.27l-1.22-.12h-.25c-.51 0-1.46-.14-2.48-.18-1.65-.07-3.33-.12-5-.15h-1.4c-1.64 0-3.31.08-5 .15-1.3.07-2.63.18-3.94.32-1.05.11-2.12.25-3.16.4l.18 1.2c.4 2.16.76 4.36 1.09 6.54.38 2.52.71 5.08 1 7.61a72.83 72.83 0 01.62 7.55c-.01.71 0 1.36 0 2.03z" class="cls-4"/><path fill="#8d1a41" d="M39.59 29.57a1 1 0 00-.5-.16 6 6 0 00-.64.08l-.45.1c-.64.16-1.2.35-1.2.35l-1.26.45-.88.35a5.13 5.13 0 000 .53v.46l.58-.32.28-.15a.85.85 0 010 .31s0 .08-.06.16a2.49 2.49 0 01-1.43 1.17 16.84 16.84 0 01-2.1.75c-.74.23-1.12.35-1.52.45a24.38 24.38 0 01-2.53.51c-1.13.17-2 .22-2.58.25H21.57c-.6 0-1.46-.08-2.58-.25a24.38 24.38 0 01-2.53-.51c-.4-.1-.77-.22-1.52-.45a16.84 16.84 0 01-2.1-.75 2.49 2.49 0 01-1.43-1.17c0-.08-.06-.16-.06-.16a.85.85 0 010-.31l.28.15.58.32v-.46a5.13 5.13 0 000-.53l-.88-.35-1.26-.45s-.56-.19-1.2-.35l-.45-.1a6 6 0 00-.64-.08 1 1 0 00-.5.16A2.57 2.57 0 007 32a3.92 3.92 0 00.95 1.53A7.23 7.23 0 0010 35a22.36 22.36 0 002.93 1.36 23.45 23.45 0 002.81.86 27.27 27.27 0 004.91.65c.77 0 1.73.09 2.84.09s2.07 0 2.84-.09a27.27 27.27 0 004.91-.65 23.45 23.45 0 002.76-.87A22.36 22.36 0 0036.93 35a7.23 7.23 0 002-1.43A3.92 3.92 0 0039.9 32a2.57 2.57 0 00-.31-2.43z"/><path d="M23.56 38.65h-.23c-.92 0-1.85 0-2.77-.09a28.14 28.14 0 01-5-.67 24.16 24.16 0 01-2.91-.89 23.23 23.23 0 01-3-1.4A7.9 7.9 0 017.42 34a4.6 4.6 0 01-1.1-1.8c-.4-1.2-.12-2.74.6-3.2a1.71 1.71 0 01.93-.27 6.68 6.68 0 01.72.08l.5.11c.66.17 1.23.35 1.25.36l1.28.46.89.35.41.17v.45a5.85 5.85 0 010 .6c0 .17 0 .35-.05.52v.3l.28.13a16.16 16.16 0 002 .72c.73.23 1.1.34 1.49.44a23.71 23.71 0 002.45.5c1.12.17 2 .21 2.52.25H25.28c.56 0 1.4-.08 2.52-.25a23.71 23.71 0 002.45-.5c.39-.1.75-.21 1.49-.44a16.16 16.16 0 002-.72l.28-.14v-.3c0-.17 0-.35-.05-.52a5.85 5.85 0 010-.6v-.45l.41-.17.89-.35 1.28-.46s.6-.2 1.26-.36l.5-.11a6.69 6.69 0 01.72-.08A1.7 1.7 0 0140 29c.72.48 1 2 .59 3.26a4.6 4.6 0 01-1.1 1.8 7.9 7.9 0 01-2.2 1.57 23.25 23.25 0 01-3 1.4 24.19 24.19 0 01-2.89.88 28.15 28.15 0 01-5 .67c-.98.04-1.91.07-2.84.07zm-.12-1.41c.94 0 1.88 0 2.8-.09a26.6 26.6 0 004.76-.63 22.78 22.78 0 002.72-.83 21.8 21.8 0 002.83-1.31 6.44 6.44 0 001.84-1.29 3.26 3.26 0 00.79-1.26 2.35 2.35 0 00-.06-1.68h-.08l-.52.06-.4.08c-.61.15-1.15.33-1.16.33l-.79.28v.29a1.55 1.55 0 010 .57 2.45 2.45 0 01-.09.23 3.16 3.16 0 01-1.79 1.54 17.45 17.45 0 01-2.18.78c-.75.23-1.13.35-1.55.46a25.11 25.11 0 01-2.6.53c-1.18.18-2.06.23-2.65.26H21.46c-.58 0-1.47-.08-2.65-.26a25.11 25.11 0 01-2.6-.53c-.42-.11-.79-.23-1.55-.46a17.49 17.49 0 01-2.18-.78A3.16 3.16 0 0110.75 32a2.45 2.45 0 01-.09-.23 1.55 1.55 0 010-.57v-.29l-.79-.28s-.54-.18-1.15-.33l-.4-.08-.52-.06h-.08a2.35 2.35 0 00-.06 1.68 3.26 3.26 0 00.79 1.27 6.44 6.44 0 001.84 1.29 21.8 21.8 0 002.83 1.31 22.77 22.77 0 002.72.83 26.6 26.6 0 004.79.64c.94.03 1.88.06 2.82.06zm15.69-7.12zm-31.38 0zm0 0h31.41z" class="cls-4"/><path d="M13.91 39l1 .6.63.37a.82.82 0 00-.09.78 1.1 1.1 0 00.64.64 1.38 1.38 0 00.68.1 1.11 1.11 0 00.81-.4c.28.15.6.3.9.43.53.24.94.38 1.31.53a3 3 0 01-1.18.9 3.18 3.18 0 01-1 .25 4.3 4.3 0 01-1.64-.2 3.29 3.29 0 01-2-1.5 2.75 2.75 0 01-.17-2.07c.03-.27-.02-.22.11-.43zM33 39.09l-1 .58-.6.33a.82.82 0 01.08.79 1.1 1.1 0 01-.65.63 1.38 1.38 0 01-.68.09 1.11 1.11 0 01-.81-.41c-.28.14-.61.29-.91.42-.53.24-.95.37-1.31.51a3 3 0 001.16.92 3.18 3.18 0 001 .27 4.3 4.3 0 001.72-.14 3.29 3.29 0 002-1.46 2.75 2.75 0 00.2-2.07c-.1-.35-.05-.29-.2-.46zM12.8 29.1c0 1 0 1.94-.07 2.88.4.19.94.42 1.58.65s1.29.41 1.84.55a26.62 26.62 0 002.82.57l.86.11q1.38.12 2.87.19h.65a25.06 25.06 0 003.72-.22l.86-.11a26.61 26.61 0 002.82-.57c.55-.14 1.11-.29 1.84-.55s1.18-.46 1.58-.65c0-.92-.07-1.87-.07-2.85a47 47 0 01-21.3 0z" class="cls-7"/><path d="M23.83 34.79H22.65c-1 0-1.94-.11-2.89-.2l-.88-.11a27.41 27.41 0 01-2.9-.58c-.53-.14-1.12-.29-1.9-.57-.56-.2-1.11-.42-1.64-.67l-.43-.2v-.47c0-.94.07-1.89.07-2.85v-.88l.86.2a46.49 46.49 0 0021 0l.86-.2v.88c0 .94 0 1.89.07 2.82v.47l-.43.2c-.53.25-1.09.48-1.64.67-.78.28-1.38.43-1.9.57a27.42 27.42 0 01-2.9.58l-.88.11a27.26 27.26 0 01-3.29.23zm-3.93-1.63c.93.08 1.88.15 2.83.19h.64a24.23 24.23 0 003.63-.19l.84-.11a26 26 0 002.75-.55c.52-.13 1.06-.27 1.78-.53.37-.13.73-.28 1.09-.43v-1.52a47.94 47.94 0 01-19.92 0v1.56c.36.16.73.3 1.09.43.72.26 1.26.4 1.78.53a26 26 0 002.75.55z" class="cls-4"/><path d="M41.63 61.15v.43h-.43" class="cls-8"/><path d="M40.34 61.58H6.12" class="cls-9"/><path d="M5.69 61.58h-.43v-.43" class="cls-8"/><path d="M5.26 60.28V26.07" class="cls-9"/><path d="M5.26 25.63v-.43h.43" class="cls-8"/><path d="M6.56 25.2h34.21" class="cls-9"/><path d="M41.2 25.2h.43v.43" class="cls-8"/><path d="M41.63 26.5v34.21" class="cls-9"/><path d="M8.4 43.62h.06A9.12 9.12 0 009.2 45a8.28 8.28 0 00.85 1.09v.05a12.45 12.45 0 00-1.18 2.79 13.25 13.25 0 00-.18 5.85c.1.54.22 1 .3 1.26a7 7 0 001.26 2.7h.07a17.59 17.59 0 01-.88-4.93 12.4 12.4 0 01.72-5 6.42 6.42 0 01.38-1A6 6 0 0111 47l.21.16.43.29c.24.15.38.24.69.4l.12.06a12.58 12.58 0 00-.89 2.33 11.53 11.53 0 00-.3 1.66 13.05 13.05 0 00.51 4.23 21.56 21.56 0 001.56 2.92c.37.58.74 1.1 1.11 1.58v.07a5.34 5.34 0 01-1.81-.38v.07l.88.68a19.49 19.49 0 012.2 1.79 9.94 9.94 0 01.76.86 3.62 3.62 0 01.7 2 22.51 22.51 0 01-2.22-.53c-.58-.17-1.12-.35-1.61-.54s-1-.43-1.28-.6a4.64 4.64 0 01-1.28-.81 3.16 3.16 0 01-.48-.62h-.08a3.34 3.34 0 00.13 1.35 6 6 0 01-1.93-1.92 14.21 14.21 0 01-1.47-3.58c-.14-.58-.26-1.22-.36-1.91a20 20 0 01-.18-2.16l.12-3.6h-.18A13.53 13.53 0 006 52.4a14.72 14.72 0 00-.2 2.55 18.49 18.49 0 00.09 1.92 3 3 0 00-1.6.86l-.14-2.4a20.07 20.07 0 01.8-6.1 11.4 11.4 0 011.28-3.06 12.89 12.89 0 012.17-2.55zM38.5 43.62h-.07a9.1 9.1 0 01-.74 1.38 8.28 8.28 0 01-.85 1.09v.06A12.45 12.45 0 0138 48.93a13.25 13.25 0 01.18 5.85c-.1.54-.22 1-.3 1.26a7 7 0 01-1.24 2.68h-.08a17.59 17.59 0 00.87-4.91 12.4 12.4 0 00-.72-5 6.42 6.42 0 00-.38-1 6 6 0 00-.44-.78h-.06l-.21.16-.43.29c-.24.15-.38.24-.69.4l-.12.06a12.58 12.58 0 01.89 2.33 11.53 11.53 0 01.3 1.66 13.05 13.05 0 01-.51 4.23 21.56 21.56 0 01-1.56 2.92c-.37.57-.74 1.1-1.1 1.57v.07a5.34 5.34 0 001.78-.37v.08l-.86.66a19.49 19.49 0 00-2.2 1.79 9.94 9.94 0 00-.76.86 3.62 3.62 0 00-.7 2.09 22.51 22.51 0 002.34-.56c.58-.17 1.12-.35 1.61-.54s1-.43 1.28-.6a4.64 4.64 0 001.28-.81 3.15 3.15 0 00.48-.61h.08a3.34 3.34 0 01-.1 1.22h.07a6 6 0 001.83-1.85A14.21 14.21 0 0040 58.56c.14-.58.26-1.22.36-1.91a20 20 0 00.18-2.16l-.12-3.57h.09a13.53 13.53 0 01.35 1.5 14.72 14.72 0 01.2 2.55 18.49 18.49 0 01-.06 1.9 3 3 0 011.6.86l.14-2.4a20.07 20.07 0 00-.8-6.1 11.4 11.4 0 00-1.28-3.06 12.88 12.88 0 00-2.16-2.55z" class="cls-10"/><path d="M26.89 48.28h-.07-.05A8.11 8.11 0 0125 49.76a7.1 7.1 0 01-1.49.63 7.1 7.1 0 01-1.49-.63 8.11 8.11 0 01-1.82-1.48h-.05a10.32 10.32 0 01-3.12.64 8.3 8.3 0 01-2.83-.35.05.05 0 00-.07 0 10.94 10.94 0 00-.57 2.21 10.63 10.63 0 00-.1 2.12 15.6 15.6 0 001.85 5.75A16.47 16.47 0 0021 63.54a15.71 15.71 0 002.34.93h.06c4.8-4.71 3.92-13.39 3.49-16.19z" class="cls-10"/><path fill="#5a2120" d="M33.42 50.79a10.94 10.94 0 00-.57-2.21.05.05 0 00-.07 0 8.3 8.3 0 01-2.78.32 10.29 10.29 0 01-3.06-.62c.42 2.79 1.31 11.47-3.45 16.19h.06a15.71 15.71 0 002.34-.93 16.47 16.47 0 005.82-4.86 15.6 15.6 0 001.85-5.75 10.63 10.63 0 00-.14-2.14z"/><path d="M29.39 51.37a5.86 5.86 0 00-.59-1.71c-.06-.12-.11-.24-.27-.23a.08.08 0 01-.07 0c-.08-.13-.19-.13-.32-.1l-1 .2a4.17 4.17 0 00-1.8.79 4.33 4.33 0 00-.92 1 .31.31 0 01-.28.15h-1.29a.47.47 0 01-.4-.18c-.11-.14-.22-.29-.34-.42a3.85 3.85 0 00-1.82-1.19c-.49-.15-1-.22-1.51-.33-.15 0-.28-.05-.37.1a.1.1 0 01-.07 0c-.14 0-.19.1-.24.21l-.15.29a4.78 4.78 0 00-.5 2 2 2 0 000 .2 9.79 9.79 0 00.62 2.53c.05.14.09.29.28.29.09.17.25.12.39.11a4.86 4.86 0 001.49-.36 6.38 6.38 0 002.09-1.36.55.55 0 01.42-.18h1.29a.52.52 0 01.4.15 6.3 6.3 0 002.29 1.46 8.3 8.3 0 001.35.31c.25 0 .38-.19.59-.25v-.06a14.12 14.12 0 00.6-2.05 3.83 3.83 0 00.13-1.37zm-5.31 1.19a.77.77 0 00-.55-.54h-.08c-.06 0-.12-.07-.11-.15a.18.18 0 01.16-.14.54.54 0 01.5.27 1.12 1.12 0 01.08.56z" class="cls-3"/><path d="M24.08 52.56a.77.77 0 00-.55-.54h-.08c-.06 0-.12-.07-.11-.15a.18.18 0 01.16-.14.54.54 0 01.5.27 1.12 1.12 0 01.08.56zM27.6 50.67a.44.44 0 010-.47.38.38 0 01.22-.12.43.43 0 01.29.08 1.64 1.64 0 01.61 1.43 1.73 1.73 0 01-.26.77 1.42 1.42 0 000-.68 1 1 0 00-.34-.6 1.8 1.8 0 01-.45-.29.48.48 0 01-.07-.12z" class="cls-7"/><path d="M38 39a17.51 17.51 0 00-.19-1.85c-.08-.5-.18-1-.28-1.41l-.57.31a6.84 6.84 0 01-.53.77 5.24 5.24 0 01-.55.6 7.53 7.53 0 01-.94.71 2.68 2.68 0 01.51.57c.78 1.49-.47 3.35-.64 3.6a4.68 4.68 0 01-1.31 1.32 7 7 0 01-2.44.91A7.32 7.32 0 0126.8 44a7.19 7.19 0 01-1-.54.9.9 0 01-.42-.8 1 1 0 01.29-.63l.56-.32 2.06-1.18c1.35-.78 2-1.17 2.54-1.49a18.14 18.14 0 001.63-1.17c-.47.14-1 .28-1.56.41a30 30 0 01-5.15.65c-.65 0-1.43.07-2.32.08s-1.67 0-2.32-.08a30 30 0 01-5.11-.7c-.57-.13-1.09-.27-1.56-.41A18.14 18.14 0 0016.05 39c.51.32 1.19.71 2.54 1.49l2.06 1.18.56.32a1 1 0 01.29.63.9.9 0 01-.42.8 7.2 7.2 0 01-1 .54 7.32 7.32 0 01-4.22.57 7 7 0 01-2.44-.91 4.68 4.68 0 01-1.31-1.32c-.17-.25-1.42-2.11-.64-3.6a2.68 2.68 0 01.51-.57 7.53 7.53 0 01-.94-.71 5.24 5.24 0 01-.55-.6A6.84 6.84 0 0110 36l-.57-.31c-.11.44-.2.91-.28 1.41a17.5 17.5 0 00-.23 1.9 7 7 0 00.17 2.67 7.14 7.14 0 001.17 2.44 6.79 6.79 0 001.87 1.68 7.13 7.13 0 002.27.89 13.52 13.52 0 004.45-.11 9.77 9.77 0 001.83-.77 9.53 9.53 0 001.51-1l.41-.5a1.13 1.13 0 01.53-.27h.22a1.82 1.82 0 01.71.12 1.48 1.48 0 01.71.72 9.52 9.52 0 001.46 1 9.77 9.77 0 001.83.77 13.52 13.52 0 004.45.11 7.13 7.13 0 002.27-.89 6.79 6.79 0 001.87-1.68 7.14 7.14 0 001.17-2.44A7 7 0 0038 39z" class="cls-10"/><path fill="#ebad00" d="M24 44.09a1.82 1.82 0 00-.71-.12h-.22a1.13 1.13 0 00-.53.27l-.19.2a2.2 2.2 0 00-.22.3c-.21.29-.42.6-.63.92s-.41.66-.58 1a.67.67 0 000 .62 5.49 5.49 0 001.05.91 5.7 5.7 0 001.36.66h.05a5.7 5.7 0 001.36-.66 5.5 5.5 0 001.05-.91.67.67 0 000-.62c-.26-.4-.45-.74-.58-1a6.05 6.05 0 00-.75-1.16 1.46 1.46 0 00-.46-.41z"/></g></svg>